<?xml version="1.0" encoding="UTF-8" standalone="no"?><!-- Generator: Gravit.io --><svg xmlns="http://www.w3.org/2000/svg" xmlns:xlink="http://www.w3.org/1999/xlink" style="isolation:isolate" viewBox="0 0 226 60" width="226pt" height="60pt"><defs><clipPath id="_clipPath_wElvQh5XvSf5nUk6QqNo9TLVRQfbm744"><rect width="226" height="60"/></clipPath></defs><g clip-path="url(#_clipPath_wElvQh5XvSf5nUk6QqNo9TLVRQfbm744)"><g><g><path d=" M 40.116 11.709 L 40.134 11.695 C 40.401 11.491 40.723 11.342 41.077 11.271 C 41.308 11.224 41.549 11.21 41.793 11.236 C 42.201 10.559 42.741 9.737 43.367 9.071 C 44.707 7.643 46.334 6.874 48.033 8.47 L 48.087 8.523 C 49.743 10.262 49.069 11.854 47.67 13.187 C 46.996 13.829 46.152 14.37 45.427 14.801 C 45.471 15.059 45.468 15.312 45.427 15.553 C 45.361 15.938 45.197 16.277 44.968 16.557 C 45.778 17.701 46.47 18.93 47.027 20.227 C 47.615 21.594 48.055 23.043 48.328 24.553 C 48.411 24.568 48.494 24.587 48.575 24.611 C 48.96 24.724 49.325 24.941 49.618 25.259 C 49.655 25.299 49.691 25.34 49.725 25.384 C 50.486 25.196 51.443 24.999 52.372 24.97 C 54.329 24.908 56.023 25.514 56.097 27.842 L 56.097 27.917 C 56.039 30.319 54.437 30.967 52.508 30.92 C 51.568 30.898 50.589 30.683 49.774 30.476 L 49.771 30.48 C 49.472 30.903 49.079 31.17 48.652 31.305 C 48.57 31.331 48.487 31.351 48.404 31.367 C 48.16 32.9 47.743 34.374 47.174 35.771 C 46.593 37.196 45.851 38.543 44.968 39.79 C 45.017 39.861 45.061 39.935 45.102 40.012 C 45.292 40.377 45.39 40.796 45.361 41.23 L 45.351 41.339 C 46.029 41.747 46.85 42.287 47.518 42.914 C 48.945 44.254 49.714 45.88 48.119 47.58 L 48.065 47.633 C 46.326 49.291 44.734 48.616 43.402 47.217 C 42.759 46.542 42.217 45.697 41.786 44.972 L 41.732 44.98 C 41.239 45.056 40.781 44.959 40.386 44.747 L 40.381 44.747 C 40.305 44.706 40.231 44.661 40.161 44.611 C 38.986 45.445 37.713 46.158 36.362 46.731 C 34.942 47.333 33.441 47.777 31.88 48.041 C 31.839 48.17 31.786 48.296 31.721 48.418 L 31.725 48.42 C 31.584 48.686 31.384 48.932 31.126 49.136 C 31.314 49.897 31.511 50.855 31.54 51.785 C 31.602 53.742 30.996 55.436 28.668 55.51 L 28.593 55.51 C 26.191 55.452 25.543 53.85 25.589 51.921 C 25.612 50.98 25.827 49.999 26.034 49.183 C 25.732 48.971 25.507 48.706 25.354 48.411 L 25.348 48.411 C 25.288 48.296 25.24 48.176 25.203 48.053 C 23.674 47.801 22.204 47.376 20.812 46.801 C 19.392 46.213 18.054 45.469 16.821 44.589 C 16.71 44.649 16.591 44.701 16.466 44.743 C 16.138 44.852 15.783 44.887 15.414 44.823 L 15.405 44.822 C 14.973 45.547 14.432 46.393 13.789 47.068 C 12.456 48.467 10.864 49.142 9.125 47.485 L 9.072 47.431 C 7.476 45.732 8.246 44.105 9.673 42.765 C 10.339 42.139 11.161 41.599 11.838 41.191 C 11.8 40.86 11.838 40.532 11.936 40.226 C 11.977 40.098 12.029 39.975 12.09 39.857 C 11.178 38.578 10.412 37.188 9.816 35.711 C 9.256 34.324 8.845 32.862 8.605 31.348 C 8.505 31.324 8.406 31.293 8.309 31.255 C 7.928 31.106 7.584 30.852 7.322 30.477 C 6.507 30.684 5.528 30.898 4.589 30.921 C 2.66 30.967 1.058 30.319 1 27.917 L 1 27.842 C 1.073 25.514 2.768 24.908 4.724 24.97 C 5.656 24.999 6.615 25.197 7.376 25.385 C 7.646 25.046 7.992 24.805 8.367 24.665 C 8.47 24.627 8.574 24.596 8.681 24.572 C 8.946 23.107 9.37 21.696 9.934 20.356 C 10.512 18.985 11.233 17.695 12.078 16.506 C 12.021 16.417 11.969 16.323 11.924 16.224 C 11.753 15.846 11.684 15.415 11.766 14.953 C 11.041 14.521 10.196 13.98 9.52 13.336 C 8.122 12.004 7.447 10.412 9.104 8.673 L 9.157 8.619 C 10.857 7.023 12.484 7.793 13.824 9.221 C 14.45 9.887 14.989 10.708 15.398 11.386 C 15.818 11.337 16.226 11.407 16.588 11.566 C 16.689 11.611 16.786 11.663 16.879 11.721 C 18.175 10.805 19.585 10.037 21.084 9.443 C 22.371 8.933 23.72 8.551 25.117 8.314 C 25.143 8.028 25.224 7.747 25.364 7.486 C 25.521 7.197 25.741 6.936 26.032 6.731 C 25.825 5.917 25.612 4.94 25.589 4.003 C 25.542 2.073 26.191 0.472 28.593 0.414 L 28.667 0.414 C 30.996 0.487 31.601 2.182 31.54 4.139 C 31.51 5.066 31.315 6.021 31.127 6.78 C 31.36 6.967 31.548 7.193 31.689 7.441 C 31.848 7.718 31.945 8.022 31.98 8.328 C 33.436 8.582 34.841 8.992 36.175 9.542 C 37.575 10.118 38.896 10.848 40.116 11.71 L 40.116 11.709 Z  M 23.79 16.47 C 23.134 16.734 22.506 17.052 21.91 17.418 L 21.93 17.46 C 22.044 17.702 22.117 17.968 22.132 18.251 C 23.017 19.102 23.885 19.96 24.728 20.83 C 25.314 21.434 25.885 22.042 26.438 22.653 C 26.385 21.843 26.346 21.028 26.32 20.207 C 26.281 18.985 26.271 17.746 26.29 16.491 C 26.151 16.339 26.036 16.172 25.945 15.995 L 25.94 15.995 C 25.913 15.943 25.889 15.89 25.867 15.836 C 25.151 15.988 24.456 16.202 23.79 16.47 L 23.79 16.47 Z  M 21.401 24.189 C 20.542 23.381 19.691 22.541 18.847 21.672 C 18.639 21.664 18.436 21.626 18.246 21.564 C 18.112 21.52 17.984 21.464 17.863 21.397 C 17.502 21.961 17.185 22.554 16.919 23.171 C 16.657 23.776 16.441 24.408 16.277 25.064 L 16.278 25.065 L 16.28 25.06 C 16.533 25.151 16.774 25.289 16.986 25.481 C 18.221 25.457 19.451 25.45 20.67 25.47 C 21.417 25.481 22.15 25.502 22.866 25.534 C 22.376 25.097 21.888 24.648 21.4 24.189 L 21.401 24.189 Z  M 21.225 31.917 C 21.874 31.287 22.527 30.673 23.186 30.079 C 22.366 30.131 21.519 30.169 20.648 30.195 C 19.474 30.23 18.284 30.238 17.081 30.22 C 16.926 30.363 16.755 30.48 16.574 30.572 C 16.437 30.642 16.294 30.696 16.148 30.735 C 16.297 31.458 16.507 32.158 16.773 32.828 C 17.039 33.499 17.362 34.143 17.737 34.753 C 17.794 34.719 17.853 34.687 17.913 34.659 C 18.155 34.544 18.421 34.472 18.705 34.456 C 19.536 33.592 20.375 32.742 21.226 31.917 L 21.225 31.917 Z  M 23.693 39.843 C 24.351 40.114 25.037 40.332 25.745 40.489 C 25.784 40.3 25.849 40.114 25.938 39.937 C 26.03 39.756 26.147 39.585 26.29 39.43 C 26.273 38.252 26.28 37.088 26.313 35.938 C 26.34 34.999 26.382 34.089 26.438 33.209 C 25.829 33.906 25.213 34.584 24.591 35.244 C 23.798 36.084 22.976 36.917 22.125 37.742 C 22.117 37.951 22.079 38.153 22.017 38.343 C 21.958 38.524 21.876 38.694 21.775 38.85 C 22.382 39.233 23.023 39.566 23.693 39.843 L 23.693 39.843 Z  M 33.444 39.79 C 34.093 39.513 34.715 39.183 35.304 38.804 C 35.253 38.705 35.21 38.6 35.175 38.492 C 35.112 38.301 35.074 38.099 35.066 37.891 C 34.187 37.038 33.339 36.177 32.521 35.308 C 31.992 34.745 31.476 34.18 30.974 33.613 C 31.009 34.376 31.031 35.159 31.042 35.957 C 31.06 37.138 31.052 38.328 31.029 39.523 C 31.221 39.736 31.36 39.976 31.45 40.23 L 31.445 40.232 C 31.469 40.298 31.49 40.366 31.507 40.433 C 32.176 40.27 32.823 40.054 33.444 39.79 L 33.444 39.79 Z  M 40.241 32.823 L 40.237 32.821 C 40.506 32.143 40.718 31.437 40.867 30.711 C 40.75 30.674 40.635 30.628 40.524 30.572 C 40.343 30.48 40.172 30.363 40.017 30.22 C 38.799 30.238 37.595 30.23 36.407 30.193 C 35.543 30.167 34.684 30.126 33.83 30.07 C 34.517 30.685 35.2 31.324 35.88 31.982 C 36.759 32.833 37.627 33.711 38.487 34.606 C 38.76 34.621 39.016 34.688 39.25 34.795 C 39.636 34.17 39.969 33.511 40.242 32.823 L 40.241 32.823 Z  M 40.09 23.176 C 39.815 22.538 39.489 21.928 39.116 21.35 C 39.06 21.374 39.003 21.395 38.945 21.414 C 38.755 21.477 38.553 21.515 38.344 21.523 C 37.472 22.421 36.592 23.288 35.704 24.122 C 35.194 24.6 34.676 25.072 34.15 25.538 C 34.878 25.505 35.624 25.483 36.384 25.47 C 37.617 25.45 38.861 25.457 40.11 25.481 C 40.301 25.309 40.514 25.18 40.739 25.089 C 40.573 24.429 40.356 23.79 40.09 23.176 L 40.09 23.176 Z  M 33.377 16.535 C 32.732 16.265 32.06 16.047 31.365 15.886 C 31.279 16.067 31.168 16.238 31.029 16.394 C 31.054 17.667 31.061 18.933 31.039 20.188 C 31.027 20.892 31.007 21.584 30.977 22.261 C 31.437 21.756 31.905 21.259 32.379 20.768 C 33.248 19.869 34.145 18.981 35.059 18.102 C 35.072 17.881 35.118 17.671 35.192 17.474 C 34.618 17.115 34.011 16.8 33.378 16.535 L 33.377 16.535 Z " fill="rgb(80,223,31)"/><path d=" M 225 27.304 C 225 30.123 223.355 32.151 220.067 33.387 L 220.067 33.386 C 219.021 33.788 217.888 34.088 216.667 34.287 C 215.888 34.413 215.079 34.499 214.24 34.545 C 214.304 34.788 214.4 34.976 214.526 35.111 C 214.76 35.361 215.19 35.486 215.817 35.486 C 216.243 35.486 216.772 35.386 217.404 35.187 C 218.122 34.96 218.924 34.625 219.809 34.183 L 221.052 33.561 L 223.523 38.763 L 222.361 39.371 C 218.629 41.322 215.49 42.298 212.945 42.298 C 210.509 42.298 208.59 41.57 207.19 40.113 C 206.604 39.506 206.127 38.835 205.758 38.1 L 205.065 41.883 L 196.069 41.883 L 198.235 30.172 C 198.311 29.763 198.377 29.379 198.431 29.021 C 198.467 28.791 198.485 28.656 198.485 28.618 C 198.485 28.547 198.48 28.498 198.47 28.472 C 198.465 28.457 198.457 28.442 198.445 28.427 C 198.247 28.431 198.059 28.498 197.882 28.627 C 197.619 28.819 197.355 29.146 197.09 29.607 L 197.085 29.612 C 196.655 30.354 196.259 31.697 195.896 33.642 L 194.335 41.883 L 178.128 41.883 L 180.448 29.414 L 179.563 30.952 L 178.467 30.505 C 178.201 30.397 177.978 30.321 177.799 30.278 C 177.653 30.243 177.516 30.226 177.387 30.226 C 176.971 30.226 176.62 30.297 176.335 30.44 C 176.054 30.58 175.806 30.801 175.591 31.103 L 175.58 31.119 C 175.413 31.346 175.24 31.737 175.059 32.291 C 174.851 32.932 174.655 33.74 174.471 34.715 L 173.119 41.883 L 156.799 41.883 L 156.908 41.361 C 156.817 41.405 156.733 41.443 156.656 41.477 L 156.657 41.478 C 156.078 41.748 155.491 41.951 154.895 42.088 C 154.285 42.228 153.679 42.298 153.077 42.298 C 152.128 42.298 151.263 42.098 150.483 41.698 C 149.702 41.298 149.038 40.712 148.492 39.941 C 148.187 39.511 147.928 39.036 147.715 38.516 L 147.09 41.883 L 137.722 41.883 L 139.653 32.227 C 138.244 35.114 136.76 38.084 135.201 41.136 L 134.819 41.883 L 129.353 41.883 L 129.182 40.71 C 128.833 38.312 128.473 35.54 128.104 32.396 L 127.995 31.455 L 126.177 41.883 L 110.618 41.883 L 110.727 41.358 C 110.629 41.407 110.542 41.449 110.465 41.483 C 109.89 41.75 109.306 41.951 108.713 42.088 C 108.104 42.228 107.497 42.298 106.896 42.298 C 104.954 42.298 103.419 41.506 102.293 39.923 C 102.009 39.525 101.766 39.091 101.561 38.62 L 100.953 41.883 L 91.992 41.883 L 92.32 40.123 C 89.244 41.573 86.61 42.298 84.417 42.298 C 81.98 42.298 80.062 41.569 78.662 40.112 C 78.049 39.478 77.555 38.773 77.18 37.998 L 76.457 41.883 L 67.497 41.883 L 69.35 31.92 L 64.689 31.92 L 62.855 41.883 L 53.547 41.883 L 58.551 14.938 L 73.2 14.938 C 73.651 14.526 74.155 14.209 74.713 13.988 L 74.713 13.983 C 75.319 13.743 75.973 13.623 76.676 13.623 C 77.92 13.623 78.977 14.049 79.845 14.9 C 80.273 15.32 80.598 15.801 80.821 16.344 L 80.823 16.344 C 81.044 16.883 81.155 17.458 81.155 18.067 C 81.155 18.758 81.028 19.411 80.776 20.024 C 80.522 20.641 80.152 21.192 79.665 21.679 C 79.604 21.74 79.542 21.799 79.48 21.856 L 80.182 21.856 L 79.481 25.627 C 79.71 25.369 79.951 25.123 80.202 24.888 C 81.424 23.744 82.778 22.884 84.263 22.307 C 85.748 21.73 87.344 21.441 89.052 21.441 C 90.113 21.441 91.073 21.557 91.933 21.787 C 92.838 22.03 93.63 22.403 94.308 22.906 C 94.708 23.204 95.054 23.534 95.344 23.898 L 97.24 13.727 L 106.201 13.727 L 104.111 24.937 C 105.033 23.863 106.032 23.037 107.107 22.458 C 108.366 21.78 109.715 21.441 111.151 21.441 C 112.332 21.441 113.383 21.74 114.303 22.338 L 115.901 13.727 L 124.9 13.727 L 124.673 14.937 L 133.893 14.937 L 134.061 16.116 C 134.433 18.747 134.766 21.366 135.06 23.971 C 135.163 24.882 135.261 25.788 135.354 26.689 C 135.779 25.777 136.219 24.851 136.673 23.909 C 137.959 21.244 139.336 18.499 140.806 15.673 L 141.189 14.937 L 152.095 14.937 L 150.219 25.036 C 152.224 22.64 154.596 21.441 157.333 21.441 C 158.524 21.441 159.582 21.745 160.507 22.352 L 160.604 21.856 L 176.839 21.856 L 176.806 22.042 C 177.107 21.853 177.443 21.708 177.814 21.606 C 178.217 21.496 178.641 21.441 179.083 21.441 C 180.011 21.441 180.906 21.733 181.768 22.318 L 181.854 21.856 L 183.447 21.856 C 183.033 21.428 182.721 20.942 182.514 20.399 C 182.31 19.863 182.207 19.281 182.207 18.655 C 182.207 17.964 182.332 17.315 182.582 16.707 C 182.831 16.099 183.201 15.554 183.69 15.073 C 184.177 14.594 184.729 14.233 185.346 13.988 L 185.346 13.983 C 185.951 13.743 186.606 13.623 187.309 13.623 C 188.553 13.623 189.609 14.049 190.477 14.9 C 190.905 15.32 191.231 15.801 191.454 16.344 L 191.456 16.343 C 191.677 16.883 191.787 17.458 191.787 18.067 C 191.787 18.758 191.661 19.41 191.408 20.024 C 191.154 20.64 190.784 21.192 190.297 21.679 C 190.236 21.74 190.175 21.799 190.112 21.856 L 198.113 21.856 L 197.936 22.771 C 198.05 22.701 198.165 22.633 198.281 22.568 C 199.627 21.817 201.073 21.441 202.618 21.441 C 203.34 21.441 204 21.534 204.597 21.721 C 205.236 21.921 205.795 22.228 206.276 22.642 C 206.771 23.069 207.145 23.59 207.396 24.205 C 207.612 24.733 207.73 25.308 207.75 25.929 C 208.056 25.56 208.384 25.213 208.732 24.888 C 209.954 23.744 211.307 22.884 212.793 22.307 C 214.277 21.73 215.874 21.441 217.581 21.441 C 218.642 21.441 219.603 21.557 220.463 21.787 C 221.367 22.03 222.159 22.403 222.837 22.906 C 223.555 23.439 224.096 24.079 224.459 24.825 C 224.82 25.566 225 26.392 225 27.303 L 225 27.304 Z  M 112.87 27.69 C 112.864 27.684 112.825 27.701 112.72 27.701 C 112.269 27.701 111.763 28.261 111.203 29.382 C 110.847 30.096 110.578 30.855 110.398 31.661 C 110.22 32.462 110.13 33.327 110.13 34.257 C 110.13 35.422 110.247 36.005 110.483 36.005 C 110.669 36.005 110.871 35.873 111.089 35.61 C 111.469 35.153 111.821 34.415 112.145 33.397 C 112.418 32.535 112.626 31.676 112.766 30.821 C 112.901 29.997 112.969 29.17 112.969 28.342 C 112.969 27.99 112.936 27.772 112.87 27.69 L 112.87 27.69 Z  M 217.32 27.273 C 217.305 27.258 217.195 27.251 216.993 27.251 C 216.179 27.251 215.52 27.748 215.018 28.742 C 215.11 28.734 215.198 28.726 215.284 28.717 C 215.804 28.661 216.185 28.586 216.428 28.493 L 216.428 28.491 C 217.024 28.257 217.323 27.931 217.323 27.512 C 217.323 27.355 217.322 27.275 217.32 27.273 L 217.32 27.273 Z  M 159.15 28.307 C 159.15 27.903 159.063 27.701 158.89 27.701 C 158.723 27.701 158.54 27.789 158.342 27.964 C 158.017 28.252 157.688 28.727 157.355 29.388 C 156.994 30.104 156.725 30.861 156.547 31.658 C 156.367 32.46 156.277 33.327 156.277 34.257 C 156.277 35.423 156.398 36.005 156.641 36.005 C 156.828 36.005 157.034 35.872 157.256 35.605 C 157.64 35.146 157.995 34.408 158.32 33.392 C 158.599 32.525 158.808 31.665 158.947 30.813 C 159.082 29.983 159.15 29.148 159.15 28.307 L 159.15 28.307 Z  M 88.792 27.273 C 88.776 27.258 88.667 27.251 88.465 27.251 C 87.65 27.251 86.992 27.748 86.489 28.742 C 86.582 28.734 86.67 28.726 86.755 28.717 C 87.275 28.661 87.657 28.586 87.9 28.493 L 87.899 28.491 C 88.496 28.257 88.794 27.931 88.794 27.512 C 88.794 27.355 88.794 27.275 88.792 27.273 L 88.792 27.273 Z  M 198.437 28.41 M 198.443 28.413 C 198.445 28.413 198.445 28.413 198.442 28.412 L 198.438 28.41 L 198.443 28.412 L 198.443 28.413 Z  M 93.257 35.103 L 93.789 32.25 C 93.152 32.683 92.403 33.063 91.539 33.387 L 91.539 33.386 C 90.494 33.788 89.36 34.088 88.139 34.287 C 87.36 34.413 86.551 34.499 85.712 34.545 C 85.777 34.788 85.872 34.976 85.998 35.111 C 86.232 35.361 86.663 35.486 87.289 35.486 C 87.715 35.486 88.244 35.386 88.876 35.187 C 89.594 34.96 90.396 34.625 91.282 34.183 L 92.525 33.561 L 93.257 35.103 L 93.257 35.103 Z  M 66.59 21.751 L 65.96 25.109 L 70.618 25.109 L 71.223 21.857 L 66.59 21.751 L 66.59 21.751 Z " fill="rgb(80,223,31)"/><path d=" M 27.446 9.42 L 27.446 9.419 L 27.435 9.421 L 27.446 9.42 Z " fill-rule="evenodd" fill="rgb(255,0,0)"/><path d=" M 29.467 24.473 C 29.825 24.566 30.163 24.709 30.472 24.895 C 32.284 22.743 34.348 20.657 36.506 18.602 C 36.122 17.704 37.141 17.152 37.617 17.605 L 37.633 17.588 C 35.452 15.706 32.684 14.487 29.641 14.243 C 30.251 14.332 30.527 15.377 29.653 15.728 C 29.726 18.717 29.71 21.662 29.467 24.473 L 29.467 24.473 Z  M 40.784 13.957 C 40.159 13.026 41.443 12.008 42.348 12.98 C 42.955 11.979 45.146 7.628 47.1 9.462 C 49.057 11.517 44.925 13.463 43.627 14.283 C 44.806 15.426 43.468 16.408 42.734 15.909 C 45.191 18.756 46.807 22.348 47.199 26.301 C 47.623 25.547 48.932 25.821 48.89 27.013 C 50.026 26.734 54.652 25.206 54.737 27.885 C 54.668 30.722 50.37 29.177 48.873 28.838 C 48.895 30.257 47.673 30.262 47.233 29.675 C 46.918 33.658 45.361 37.292 42.949 40.189 C 43.768 39.992 44.471 41.093 43.609 41.896 C 44.61 42.502 48.961 44.694 47.127 46.647 C 45.072 48.605 43.126 44.473 42.306 43.175 C 41.309 44.203 40.434 43.315 40.559 42.585 C 37.771 44.92 34.297 46.46 30.482 46.859 C 30.859 47.403 30.509 48.339 29.498 48.303 C 29.776 49.439 31.304 54.066 28.626 54.15 C 25.789 54.082 27.334 49.783 27.672 48.286 C 26.451 48.305 26.278 47.401 26.628 46.869 C 22.856 46.495 19.412 45.004 16.632 42.732 C 16.521 43.369 15.75 43.917 14.886 43.026 C 14.066 44.324 12.119 48.456 10.064 46.498 C 8.23 44.544 12.582 42.353 13.582 41.747 C 12.833 41.049 13.266 40.127 13.93 40.026 C 11.611 37.178 10.112 33.638 9.788 29.764 C 9.298 30.257 8.204 30.181 8.225 28.839 C 6.728 29.177 2.429 30.723 2.361 27.885 C 2.445 25.207 7.072 26.735 8.208 27.013 C 8.167 25.884 9.341 25.579 9.825 26.192 C 10.222 22.412 11.739 18.966 14.039 16.192 C 13.337 16.214 12.588 15.379 13.564 14.433 C 12.266 13.613 8.133 11.666 10.091 9.612 C 12.045 7.778 14.236 12.129 14.843 13.129 C 15.606 12.31 16.638 12.905 16.569 13.67 C 19.515 11.242 23.215 9.697 27.263 9.432 C 26.306 9.391 25.963 7.612 27.672 7.638 C 27.334 6.141 25.788 1.842 28.625 1.774 C 31.304 1.858 29.776 6.485 29.497 7.621 C 30.866 7.572 31.024 9.306 29.806 9.435 L 29.806 9.436 C 33.99 9.722 37.798 11.377 40.784 13.958 L 40.784 13.957 Z  M 38.957 18.894 L 38.943 18.907 C 39.425 19.612 38.657 20.439 37.851 20.071 C 35.824 22.193 33.744 24.152 31.603 25.932 C 31.843 26.263 32.031 26.633 32.156 27.032 C 34.932 26.799 37.835 26.784 40.782 26.857 C 41.145 25.95 42.256 26.28 42.273 26.938 L 42.429 26.93 C 42.157 23.858 40.893 21.072 38.957 18.894 L 38.957 18.894 Z  M 42.47 28.806 L 42.291 28.796 C 42.133 29.635 41.005 29.677 40.695 28.847 C 37.823 28.913 35.025 28.832 32.308 28.589 C 32.249 29.14 32.072 29.657 31.804 30.112 C 33.916 31.902 35.967 33.932 37.986 36.053 C 38.884 35.669 39.436 36.688 38.983 37.164 L 39.112 37.281 C 41.086 34.983 42.326 32.037 42.47 28.806 L 42.47 28.806 Z  M 37.797 38.619 L 37.682 38.491 C 36.977 38.973 36.15 38.205 36.517 37.399 C 34.435 35.409 32.509 33.368 30.755 31.269 C 30.382 31.54 29.959 31.746 29.501 31.869 C 29.711 34.554 29.723 37.354 29.653 40.196 C 30.559 40.559 30.229 41.67 29.572 41.686 L 29.593 42.113 C 32.732 41.871 35.58 40.593 37.797 38.619 Z  M 27.69 42.13 L 27.714 41.704 C 26.875 41.546 26.833 40.418 27.663 40.108 C 27.599 37.318 27.674 34.597 27.901 31.952 C 27.307 31.858 26.759 31.627 26.29 31.293 C 24.576 33.331 22.699 35.315 20.674 37.249 C 21.041 38.055 20.214 38.823 19.509 38.341 L 19.241 38.641 C 21.517 40.658 24.456 41.944 27.69 42.13 L 27.69 42.13 Z  M 17.906 37.288 L 18.208 37.015 C 17.755 36.539 18.307 35.52 19.204 35.904 C 21.167 33.842 23.159 31.867 25.209 30.115 C 24.941 29.661 24.765 29.146 24.705 28.597 C 22.014 28.833 19.244 28.912 16.402 28.847 C 16.092 29.677 14.964 29.635 14.806 28.796 L 14.542 28.811 C 14.687 32.044 15.929 34.991 17.906 37.288 L 17.906 37.288 Z  M 14.584 26.926 L 14.824 26.938 C 14.841 26.281 15.951 25.951 16.314 26.857 C 19.232 26.785 22.107 26.799 24.858 27.026 C 24.982 26.63 25.17 26.261 25.408 25.932 C 23.331 24.192 21.309 22.283 19.339 20.221 C 18.533 20.588 17.765 19.761 18.247 19.056 L 18.059 18.888 C 16.122 21.066 14.856 23.853 14.583 26.926 L 14.584 26.926 Z  M 19.404 17.567 L 19.574 17.755 C 20.05 17.301 21.069 17.854 20.685 18.751 C 22.786 20.752 24.798 22.783 26.575 24.874 C 26.986 24.633 27.447 24.466 27.938 24.393 C 27.682 21.616 27.596 18.754 27.663 15.815 C 26.834 15.505 26.875 14.382 27.709 14.22 C 24.545 14.398 21.661 15.628 19.404 17.567 L 19.404 17.567 Z  M 27.446 9.42 L 27.446 9.419 L 27.435 9.42 L 27.446 9.42 L 27.446 9.42 Z " fill-rule="evenodd" fill="rgb(0,0,128)"/><g><path d=" M 72.863 16.304 L 72.101 20.386 L 65.46 20.386 L 64.318 26.474 L 70.787 26.474 L 70.061 30.556 L 63.557 30.556 L 61.724 40.518 L 55.186 40.518 L 59.683 16.304 L 72.863 16.304 Z " fill="rgb(0,0,128)"/><path d=" M 79.79 18.068 C 79.79 19.106 79.427 19.988 78.701 20.715 C 77.974 21.441 77.092 21.804 76.055 21.804 C 75.132 21.804 74.383 21.51 73.806 20.922 C 73.229 20.334 72.941 19.579 72.941 18.656 C 72.941 17.619 73.299 16.748 74.013 16.045 C 74.728 15.341 75.616 14.99 76.677 14.99 C 77.553 14.99 78.291 15.284 78.891 15.872 C 79.49 16.46 79.79 17.192 79.79 18.068 L 79.79 18.068 Z  M 78.545 23.222 L 75.328 40.518 L 69.136 40.518 L 72.353 23.222 L 78.545 23.222 L 78.545 23.222 Z " fill="rgb(0,0,128)"/><path d=" M 104.563 15.093 L 99.824 40.518 L 93.632 40.518 L 98.371 15.093 L 104.563 15.093 Z " fill="rgb(0,0,128)"/><path d=" M 150.457 16.304 L 145.96 40.518 L 139.388 40.518 L 143.158 21.666 C 140.299 27.869 137.243 34.153 133.991 40.518 L 130.532 40.518 C 129.84 35.767 129.102 29.483 128.318 21.666 L 125.032 40.518 L 119.532 40.518 L 124.064 16.304 L 132.711 16.304 C 133.449 21.516 134.037 26.728 134.476 31.939 C 136.528 27.235 139.042 22.023 142.017 16.304 L 150.457 16.304 L 150.457 16.304 Z " fill="rgb(0,0,128)"/><path d=" M 181.885 24.191 L 178.98 29.241 C 178.357 28.988 177.827 28.861 177.389 28.861 C 176.143 28.861 175.175 29.345 174.483 30.314 C 173.975 31.006 173.526 32.389 173.134 34.465 L 171.992 40.518 L 165.8 40.518 L 169.017 23.222 L 175.209 23.222 L 174.517 27.028 L 175.832 25.125 C 176.478 24.18 177.014 23.557 177.44 23.257 C 177.867 22.958 178.415 22.808 179.083 22.808 C 180.029 22.808 180.963 23.269 181.885 24.191 L 181.885 24.191 Z " fill="rgb(0,0,128)"/><path d=" M 190.422 18.068 C 190.422 19.106 190.058 19.988 189.332 20.715 C 188.606 21.441 187.724 21.804 186.686 21.804 C 185.764 21.804 185.014 21.51 184.437 20.922 C 183.861 20.334 183.572 19.579 183.572 18.656 C 183.572 17.619 183.93 16.748 184.645 16.045 C 185.36 15.341 186.247 14.99 187.308 14.99 C 188.185 14.99 188.923 15.284 189.522 15.872 C 190.121 16.46 190.421 17.192 190.421 18.068 L 190.422 18.068 Z  M 189.177 23.222 L 185.959 40.518 L 179.767 40.518 L 182.984 23.222 L 189.177 23.222 L 189.177 23.222 Z " fill="rgb(0,0,128)"/><path d=" M 206.388 26.128 C 206.388 26.797 206.25 27.881 205.973 29.38 L 203.932 40.519 L 197.706 40.519 L 199.574 30.418 C 199.758 29.426 199.85 28.827 199.85 28.619 C 199.85 28.181 199.718 27.812 199.452 27.512 C 199.187 27.212 198.859 27.062 198.466 27.062 C 197.475 27.062 196.622 27.685 195.907 28.93 C 195.399 29.807 194.95 31.294 194.558 33.393 L 193.208 40.519 L 187.016 40.519 L 190.268 23.223 L 196.46 23.223 L 195.803 26.613 C 197.717 24.076 199.989 22.808 202.618 22.808 C 203.794 22.808 204.716 23.096 205.385 23.673 C 206.054 24.249 206.388 25.068 206.388 26.129 L 206.388 26.128 Z " fill="rgb(0,0,128)"/><path d=" M 95.106 27.304 C 95.106 29.495 93.757 31.098 91.059 32.113 C 89.145 32.851 86.873 33.219 84.244 33.219 L 84.244 33.6 C 84.244 35.768 85.259 36.852 87.289 36.852 C 88.419 36.852 89.952 36.367 91.889 35.399 L 93.204 38.166 C 89.675 40.011 86.747 40.934 84.417 40.934 C 82.365 40.934 80.774 40.346 79.644 39.169 C 78.329 37.809 77.672 36.067 77.672 33.946 C 77.672 32.493 77.983 31.034 78.606 29.57 C 79.228 28.106 80.07 26.878 81.131 25.886 C 83.322 23.834 85.962 22.808 89.053 22.808 C 90.943 22.808 92.425 23.205 93.498 24.001 C 94.57 24.797 95.106 25.898 95.106 27.305 L 95.106 27.304 Z  M 90.16 27.512 C 90.16 26.428 89.595 25.886 88.465 25.886 C 86.551 25.886 85.248 27.316 84.556 30.175 C 86.401 30.175 87.681 30.037 88.396 29.76 C 89.572 29.299 90.16 28.549 90.16 27.512 L 90.16 27.512 Z " fill="rgb(0,0,128)"/><path d=" M 123.259 15.093 L 118.485 40.518 L 112.293 40.518 L 112.673 38.685 C 111.29 39.515 110.367 40.034 109.906 40.242 C 108.915 40.703 107.911 40.933 106.897 40.933 C 105.421 40.933 104.256 40.334 103.403 39.135 C 102.55 37.935 102.123 36.298 102.123 34.223 C 102.123 31.155 103.022 28.486 104.821 26.215 C 106.62 23.943 108.73 22.807 111.152 22.807 C 112.812 22.807 114.15 23.591 115.164 25.16 L 117.032 15.094 L 123.259 15.094 L 123.259 15.093 Z  M 114.334 28.342 C 114.334 27.004 113.798 26.336 112.72 26.336 C 111.711 26.336 110.8 27.149 109.987 28.774 C 109.174 30.4 108.765 32.228 108.765 34.257 C 108.765 36.333 109.335 37.37 110.483 37.37 C 111.699 37.37 112.685 36.183 113.44 33.807 C 114.034 31.94 114.334 30.118 114.334 28.342 L 114.334 28.342 Z " fill="rgb(0,0,128)"/><path d=" M 167.918 23.222 L 164.666 40.518 L 158.474 40.518 L 158.855 38.685 C 157.448 39.538 156.526 40.057 156.087 40.242 C 155.096 40.703 154.093 40.933 153.078 40.933 C 151.602 40.933 150.443 40.339 149.602 39.152 C 148.76 37.964 148.339 36.321 148.339 34.222 C 148.339 31.155 149.232 28.486 151.02 26.214 C 152.807 23.943 154.911 22.807 157.333 22.807 C 158.993 22.807 160.331 23.591 161.345 25.159 L 161.726 23.222 L 167.918 23.222 L 167.918 23.222 Z  M 160.515 28.307 C 160.515 26.993 159.973 26.336 158.889 26.336 C 157.875 26.336 156.958 27.149 156.139 28.774 C 155.321 30.4 154.911 32.228 154.911 34.257 C 154.911 36.333 155.488 37.37 156.641 37.37 C 157.863 37.37 158.855 36.183 159.616 33.807 C 160.215 31.94 160.515 30.106 160.515 28.307 L 160.515 28.307 Z " fill="rgb(0,0,128)"/><path d=" M 223.635 27.304 C 223.635 29.495 222.285 31.098 219.587 32.113 C 217.673 32.851 215.402 33.219 212.773 33.219 L 212.773 33.6 C 212.773 35.768 213.788 36.852 215.817 36.852 C 216.947 36.852 218.48 36.367 220.417 35.399 L 221.732 38.166 C 218.204 40.011 215.275 40.934 212.946 40.934 C 210.893 40.934 209.302 40.346 208.172 39.169 C 206.857 37.809 206.2 36.067 206.2 33.946 C 206.2 32.493 206.512 31.034 207.134 29.57 C 207.757 28.106 208.598 26.878 209.659 25.886 C 211.85 23.834 214.491 22.808 217.581 22.808 C 219.472 22.808 220.954 23.205 222.026 24.001 C 223.098 24.797 223.635 25.898 223.635 27.305 L 223.635 27.304 Z  M 218.688 27.512 C 218.688 26.428 218.123 25.886 216.993 25.886 C 215.079 25.886 213.776 27.316 213.084 30.175 C 214.929 30.175 216.209 30.037 216.924 29.76 C 218.1 29.299 218.688 28.549 218.688 27.512 L 218.688 27.512 Z " fill="rgb(0,0,128)"/></g><path d=" M 222.617 46.042 L 221.457 52.27 L 221.457 52.276 C 221.249 53.382 220.986 54.346 220.667 55.166 C 220.327 56.044 219.916 56.768 219.436 57.339 L 219.436 57.344 C 218.803 58.09 218.055 58.651 217.192 59.029 C 216.346 59.4 215.41 59.586 214.387 59.586 C 213.812 59.586 213.201 59.512 212.552 59.366 C 211.94 59.228 211.302 59.023 210.64 58.75 L 209.385 58.234 L 210.526 55.444 L 197.17 55.444 L 198.164 50.098 L 197.782 49.943 C 197.678 49.901 197.606 49.874 197.565 49.865 C 197.557 49.863 197.546 49.862 197.532 49.862 C 197.401 49.862 197.307 49.902 197.25 49.982 L 197.239 49.998 C 197.205 50.045 197.155 50.166 197.093 50.359 C 197.002 50.639 196.915 50.997 196.833 51.431 L 196.076 55.444 L 190.345 55.444 L 190.444 54.912 C 189.232 55.399 188.16 55.643 187.226 55.643 C 186.576 55.643 185.983 55.544 185.448 55.347 C 184.872 55.134 184.375 54.811 183.959 54.377 C 183.881 54.297 183.808 54.216 183.737 54.132 L 183.688 54.158 C 181.794 55.148 180.182 55.643 178.851 55.643 C 178.201 55.643 177.608 55.545 177.073 55.347 C 176.537 55.149 176.069 54.855 175.672 54.466 L 175.492 55.445 L 162.718 55.445 C 162.401 56.198 162.028 56.83 161.599 57.339 L 161.599 57.345 C 160.967 58.09 160.219 58.652 159.356 59.03 C 158.509 59.401 157.574 59.586 156.551 59.586 C 155.976 59.586 155.364 59.513 154.716 59.366 C 154.103 59.228 153.466 59.023 152.803 58.75 L 151.549 58.235 L 152.689 55.445 L 135.51 55.445 L 138.17 41.119 L 147.241 41.119 L 146.652 44.432 L 150.687 44.432 C 151.139 44.299 151.613 44.233 152.109 44.233 C 153.006 44.233 153.744 44.483 154.324 44.983 C 154.565 45.19 154.76 45.424 154.91 45.685 C 155.284 45.325 155.68 45.032 156.1 44.806 C 156.81 44.424 157.568 44.233 158.373 44.233 C 158.807 44.233 159.21 44.299 159.583 44.432 L 163.157 44.432 C 163.086 44.171 163.05 43.897 163.05 43.61 C 163.05 43.19 163.128 42.789 163.285 42.407 C 163.441 42.027 163.671 41.687 163.974 41.389 C 164.28 41.088 164.623 40.862 165.003 40.711 L 165.005 40.716 C 165.387 40.565 165.787 40.489 166.204 40.489 C 166.579 40.489 166.939 40.558 167.285 40.696 C 167.635 40.835 167.947 41.039 168.219 41.306 C 168.78 41.856 169.061 42.53 169.061 43.329 C 169.061 43.711 168.995 44.079 168.864 44.432 L 172.309 44.432 C 172.761 44.299 173.234 44.233 173.73 44.233 C 174.627 44.233 175.366 44.483 175.946 44.983 C 176.233 45.231 176.456 45.517 176.613 45.84 C 177.195 45.347 177.831 44.966 178.522 44.697 C 179.319 44.388 180.169 44.233 181.071 44.233 C 182.273 44.233 183.252 44.514 184.01 45.076 C 184.354 45.332 184.633 45.628 184.844 45.966 C 185.464 45.411 186.149 44.988 186.897 44.697 C 187.694 44.388 188.544 44.233 189.446 44.233 C 190.597 44.233 191.544 44.49 192.287 45.005 L 192.394 44.431 L 197.264 44.431 C 197.589 44.299 197.95 44.233 198.345 44.233 C 198.698 44.233 199.04 44.297 199.372 44.427 C 199.301 44.168 199.266 43.895 199.266 43.61 C 199.266 43.19 199.344 42.789 199.5 42.407 C 199.657 42.026 199.887 41.687 200.19 41.389 C 200.496 41.088 200.839 40.861 201.219 40.711 L 201.22 40.716 C 201.603 40.564 202.003 40.489 202.42 40.489 C 202.794 40.489 203.155 40.558 203.501 40.696 C 203.851 40.835 204.162 41.039 204.435 41.306 C 204.996 41.856 205.276 42.53 205.276 43.328 C 205.276 43.711 205.211 44.079 205.08 44.431 L 208.524 44.431 C 208.976 44.299 209.45 44.233 209.946 44.233 C 210.843 44.233 211.581 44.483 212.162 44.983 C 212.402 45.19 212.597 45.424 212.747 45.684 C 213.121 45.325 213.518 45.032 213.937 44.806 C 214.647 44.424 215.405 44.233 216.21 44.233 C 216.644 44.233 217.047 44.299 217.42 44.431 L 222.918 44.431 L 222.618 46.042 L 222.617 46.042 Z  M 159.1 49.243 C 159.1 48.981 158.994 48.85 158.781 48.85 C 158.581 48.85 158.4 49.009 158.237 49.327 C 158.074 49.645 157.992 50.003 157.992 50.4 C 157.992 50.806 158.105 51.009 158.332 51.009 C 158.568 51.009 158.765 50.777 158.924 50.312 C 159.041 49.965 159.1 49.608 159.1 49.243 Z  M 216.936 49.242 C 216.936 48.98 216.83 48.848 216.617 48.848 C 216.418 48.848 216.237 49.008 216.074 49.326 C 215.911 49.645 215.83 50.003 215.83 50.401 C 215.83 50.808 215.943 51.011 216.169 51.011 C 216.404 51.011 216.601 50.778 216.759 50.313 C 216.877 49.965 216.936 49.608 216.936 49.242 L 216.936 49.242 Z  M 180.718 48.014 C 180.718 47.837 180.625 47.748 180.44 47.748 C 180.126 47.748 179.912 47.982 179.799 48.451 C 180.101 48.451 180.311 48.428 180.429 48.383 C 180.621 48.307 180.718 48.184 180.718 48.014 Z  M 189.088 48.013 C 189.088 47.833 188.997 47.743 188.813 47.743 C 188.503 47.743 188.291 47.981 188.179 48.456 C 188.478 48.456 188.686 48.433 188.802 48.387 C 188.993 48.31 189.088 48.186 189.088 48.013 L 189.088 48.013 Z " fill="rgb(80,223,31)"/><g><path d=" M 145.612 42.484 L 145.263 44.438 L 142.066 44.438 L 141.57 47.056 L 144.651 47.056 L 144.303 49.01 L 141.222 49.01 L 140.642 52.125 L 144.402 52.125 L 144.038 54.079 L 137.147 54.079 L 139.3 42.484 L 145.612 42.484 Z " fill="rgb(0,0,128)"/><path d=" M 153.913 47.188 C 153.913 47.508 153.847 48.028 153.715 48.745 L 152.737 54.079 L 149.756 54.079 L 150.65 49.242 C 150.738 48.767 150.783 48.48 150.783 48.381 C 150.783 48.171 150.719 47.994 150.592 47.851 C 150.465 47.707 150.308 47.635 150.12 47.635 C 149.645 47.635 149.237 47.933 148.894 48.53 C 148.651 48.949 148.436 49.662 148.248 50.667 L 147.602 54.079 L 144.637 54.079 L 146.194 45.796 L 149.159 45.796 L 148.844 47.42 C 149.761 46.205 150.849 45.598 152.108 45.598 C 152.671 45.598 153.113 45.736 153.433 46.012 C 153.753 46.288 153.914 46.68 153.914 47.188 L 153.913 47.188 Z " fill="rgb(0,0,128)"/><path d=" M 163.441 45.797 L 162.282 52.025 C 161.895 54.079 161.321 55.559 160.559 56.465 C 159.565 57.635 158.228 58.22 156.55 58.22 C 155.578 58.22 154.501 57.977 153.32 57.492 L 154.098 55.587 C 154.794 56.039 155.507 56.266 156.235 56.266 C 157.152 56.266 157.842 55.981 158.306 55.415 C 158.626 55.029 158.858 54.46 159.002 53.717 L 159.101 53.201 C 158.438 53.599 157.997 53.847 157.776 53.947 C 157.301 54.167 156.821 54.278 156.335 54.278 C 155.628 54.278 155.07 53.991 154.662 53.416 C 154.253 52.842 154.049 52.058 154.049 51.064 C 154.049 49.595 154.479 48.317 155.341 47.229 C 156.202 46.141 157.213 45.597 158.372 45.597 C 159.168 45.597 159.808 45.973 160.294 46.724 L 160.46 45.796 L 163.442 45.796 L 163.441 45.797 Z  M 159.896 48.248 C 159.896 47.608 159.637 47.287 159.117 47.287 C 158.632 47.287 158.19 47.677 157.792 48.455 C 157.395 49.234 157.196 50.109 157.196 51.081 C 157.196 52.075 157.472 52.572 158.024 52.572 C 158.598 52.572 159.079 52.003 159.465 50.866 C 159.753 50.015 159.896 49.143 159.896 48.248 L 159.896 48.248 Z " fill="rgb(0,0,128)"/><path d=" M 167.694 43.329 C 167.694 43.826 167.52 44.248 167.172 44.596 C 166.824 44.944 166.402 45.117 165.905 45.117 C 165.463 45.117 165.104 44.977 164.828 44.695 C 164.552 44.414 164.414 44.052 164.414 43.61 C 164.414 43.113 164.586 42.696 164.928 42.359 C 165.27 42.022 165.695 41.854 166.203 41.854 C 166.623 41.854 166.976 41.995 167.263 42.277 C 167.551 42.558 167.694 42.909 167.694 43.329 L 167.694 43.329 Z  M 167.097 45.797 L 165.557 54.079 L 162.592 54.079 L 164.132 45.797 L 167.097 45.797 L 167.097 45.797 Z " fill="rgb(0,0,128)"/><path d=" M 175.535 47.188 C 175.535 47.508 175.468 48.028 175.336 48.745 L 174.359 54.079 L 171.377 54.079 L 172.271 49.242 C 172.36 48.767 172.404 48.48 172.404 48.381 C 172.404 48.171 172.34 47.994 172.213 47.851 C 172.087 47.707 171.929 47.635 171.741 47.635 C 171.266 47.635 170.858 47.933 170.515 48.53 C 170.272 48.949 170.057 49.662 169.869 50.667 L 169.223 54.079 L 166.258 54.079 L 167.815 45.796 L 170.78 45.796 L 170.466 47.42 C 171.382 46.205 172.47 45.598 173.729 45.598 C 174.292 45.598 174.734 45.736 175.054 46.012 C 175.375 46.288 175.535 46.68 175.535 47.188 L 175.535 47.188 Z " fill="rgb(0,0,128)"/><path d=" M 183.969 47.751 C 183.969 48.801 183.323 49.568 182.031 50.054 C 181.114 50.407 180.027 50.584 178.767 50.584 L 178.767 50.766 C 178.767 51.804 179.254 52.323 180.225 52.323 C 180.766 52.323 181.501 52.092 182.428 51.628 L 183.058 52.953 C 181.368 53.836 179.966 54.278 178.85 54.278 C 177.868 54.278 177.105 53.996 176.564 53.433 C 175.935 52.782 175.62 51.948 175.62 50.932 C 175.62 50.236 175.769 49.538 176.067 48.836 C 176.366 48.135 176.769 47.547 177.276 47.072 C 178.326 46.089 179.59 45.598 181.07 45.598 C 181.975 45.598 182.685 45.788 183.199 46.169 C 183.712 46.55 183.969 47.078 183.969 47.751 L 183.969 47.751 Z  M 181.6 47.851 C 181.6 47.332 181.33 47.072 180.789 47.072 C 179.872 47.072 179.248 47.757 178.917 49.126 C 179.8 49.126 180.413 49.06 180.755 48.927 C 181.319 48.707 181.6 48.348 181.6 47.851 L 181.6 47.851 Z " fill="rgb(0,0,128)"/><path d=" M 192.344 47.751 C 192.344 48.801 191.698 49.568 190.406 50.054 C 189.489 50.407 188.402 50.584 187.142 50.584 L 187.142 50.766 C 187.142 51.804 187.629 52.323 188.6 52.323 C 189.141 52.323 189.876 52.092 190.804 51.628 L 191.433 52.953 C 189.743 53.836 188.341 54.278 187.225 54.278 C 186.243 54.278 185.48 53.996 184.939 53.433 C 184.31 52.782 183.995 51.948 183.995 50.932 C 183.995 50.236 184.144 49.538 184.442 48.836 C 184.741 48.135 185.144 47.547 185.651 47.072 C 186.701 46.089 187.965 45.598 189.445 45.598 C 190.35 45.598 191.06 45.788 191.574 46.169 C 192.087 46.55 192.344 47.078 192.344 47.751 L 192.344 47.751 Z  M 189.975 47.851 C 189.975 47.332 189.705 47.072 189.164 47.072 C 188.247 47.072 187.623 47.757 187.292 49.126 C 188.175 49.126 188.788 49.06 189.131 48.927 C 189.694 48.707 189.975 48.348 189.975 47.851 L 189.975 47.851 Z " fill="rgb(0,0,128)"/><path d=" M 199.685 46.26 L 198.294 48.679 C 197.995 48.557 197.741 48.497 197.532 48.497 C 196.935 48.497 196.472 48.728 196.14 49.192 C 195.897 49.524 195.682 50.186 195.494 51.18 L 194.947 54.079 L 191.982 54.079 L 193.523 45.796 L 196.488 45.796 L 196.157 47.619 L 196.786 46.708 C 197.095 46.255 197.352 45.957 197.556 45.813 C 197.761 45.669 198.023 45.598 198.343 45.598 C 198.796 45.598 199.243 45.819 199.685 46.26 L 199.685 46.26 Z " fill="rgb(0,0,128)"/><path d=" M 203.91 43.329 C 203.91 43.826 203.736 44.248 203.388 44.596 C 203.04 44.944 202.618 45.117 202.121 45.117 C 201.679 45.117 201.32 44.977 201.044 44.695 C 200.768 44.414 200.63 44.052 200.63 43.61 C 200.63 43.113 200.801 42.696 201.143 42.359 C 201.486 42.022 201.911 41.854 202.419 41.854 C 202.839 41.854 203.192 41.995 203.479 42.277 C 203.766 42.558 203.91 42.909 203.91 43.329 L 203.91 43.329 Z  M 203.313 45.797 L 201.773 54.079 L 198.807 54.079 L 200.348 45.797 L 203.313 45.797 L 203.313 45.797 Z " fill="rgb(0,0,128)"/><path d=" M 211.75 47.188 C 211.75 47.508 211.684 48.028 211.551 48.745 L 210.574 54.079 L 207.593 54.079 L 208.487 49.242 C 208.575 48.767 208.62 48.48 208.62 48.381 C 208.62 48.171 208.556 47.994 208.429 47.851 C 208.302 47.707 208.145 47.635 207.957 47.635 C 207.482 47.635 207.074 47.933 206.731 48.53 C 206.488 48.949 206.273 49.662 206.085 50.667 L 205.439 54.079 L 202.474 54.079 L 204.031 45.796 L 206.996 45.796 L 206.681 47.42 C 207.598 46.205 208.686 45.598 209.945 45.598 C 210.508 45.598 210.95 45.736 211.27 46.012 C 211.59 46.288 211.751 46.68 211.751 47.188 L 211.75 47.188 Z " fill="rgb(0,0,128)"/><path d=" M 221.278 45.797 L 220.118 52.025 C 219.732 54.079 219.157 55.559 218.396 56.465 C 217.402 57.635 216.065 58.22 214.387 58.22 C 213.415 58.22 212.338 57.977 211.157 57.492 L 211.935 55.587 C 212.631 56.039 213.343 56.266 214.072 56.266 C 214.989 56.266 215.679 55.981 216.143 55.415 C 216.463 55.029 216.695 54.46 216.839 53.717 L 216.938 53.201 C 216.275 53.599 215.834 53.847 215.613 53.947 C 215.138 54.167 214.658 54.278 214.172 54.278 C 213.465 54.278 212.907 53.991 212.499 53.416 C 212.09 52.842 211.886 52.058 211.886 51.064 C 211.886 49.595 212.316 48.317 213.178 47.229 C 214.039 46.141 215.05 45.597 216.209 45.597 C 217.004 45.597 217.645 45.973 218.131 46.724 L 218.297 45.796 L 221.278 45.796 L 221.278 45.797 Z  M 217.733 48.248 C 217.733 47.608 217.474 47.287 216.954 47.287 C 216.469 47.287 216.027 47.677 215.629 48.455 C 215.232 49.234 215.033 50.109 215.033 51.081 C 215.033 52.075 215.309 52.572 215.861 52.572 C 216.435 52.572 216.916 52.003 217.302 50.866 C 217.589 50.015 217.733 49.143 217.733 48.248 L 217.733 48.248 Z " fill="rgb(0,0,128)"/></g></g></g></g></svg>