<?xml version="1.0" standalone="no"?><!-- Generator: Gravit.io --><svg xmlns="http://www.w3.org/2000/svg" xmlns:xlink="http://www.w3.org/1999/xlink" style="isolation:isolate" viewBox="0 0 226 60" width="226" height="60"><defs><clipPath id="_clipPath_bVX2cP52OIU7yOvpvsVBZMEnPHDQHUN3"><rect width="226" height="60"/></clipPath></defs><g clip-path="url(#_clipPath_bVX2cP52OIU7yOvpvsVBZMEnPHDQHUN3)"><g><g><mask id="_mask_uyUL1i6L7jiJsen2PspqCgX75irhYZ21" x="-200%" y="-200%" width="400%" height="400%"><rect x="-200%" y="-200%" width="400%" height="400%" style="fill:white;"/><path d=" M 39.897 13.333 C 39.264 12.39 40.565 11.359 41.481 12.343 C 42.095 11.331 44.313 6.925 46.291 8.782 C 48.272 10.862 44.089 12.833 42.775 13.663 C 43.969 14.819 42.614 15.814 41.872 15.309 C 44.359 18.191 45.995 21.827 46.392 25.829 C 46.821 25.066 48.146 25.342 48.103 26.549 C 49.253 26.267 53.936 24.721 54.022 27.432 C 53.952 30.305 49.601 28.74 48.085 28.398 C 48.107 29.833 46.87 29.838 46.425 29.245 C 46.107 33.277 44.53 36.955 42.088 39.888 C 42.918 39.689 43.629 40.804 42.757 41.616 C 43.77 42.23 48.175 44.448 46.318 46.426 C 44.238 48.407 42.267 44.224 41.437 42.91 C 40.428 43.951 39.543 43.053 39.668 42.313 C 36.847 44.677 33.329 46.236 29.468 46.64 C 29.849 47.19 29.495 48.138 28.471 48.102 C 28.753 49.252 30.3 53.935 27.588 54.021 C 24.716 53.951 26.281 49.6 26.623 48.084 C 25.387 48.103 25.212 47.188 25.566 46.65 C 21.747 46.27 18.262 44.761 15.446 42.462 C 15.335 43.107 14.553 43.661 13.679 42.759 C 12.849 44.073 10.879 48.256 8.799 46.274 C 6.942 44.296 11.347 42.078 12.36 41.464 C 11.602 40.758 12.04 39.824 12.712 39.722 C 10.365 36.839 8.847 33.256 8.519 29.334 C 8.023 29.833 6.916 29.756 6.937 28.397 C 5.421 28.739 1.07 30.304 1 27.432 C 1.086 24.72 5.769 26.267 6.919 26.549 C 6.878 25.405 8.066 25.097 8.556 25.717 C 8.958 21.89 10.494 18.402 12.823 15.594 C 12.112 15.617 11.354 14.771 12.342 13.813 C 11.028 12.983 6.844 11.013 8.826 8.933 C 10.804 7.076 13.022 11.481 13.636 12.494 C 14.408 11.664 15.454 12.267 15.384 13.041 C 18.366 10.583 22.111 9.018 26.21 8.751 C 25.241 8.709 24.893 6.908 26.623 6.935 C 26.281 5.419 24.716 1.067 27.588 0.998 C 30.3 1.084 28.753 5.767 28.471 6.917 C 29.857 6.868 30.017 8.623 28.784 8.753 L 28.784 8.754 C 33.019 9.044 36.874 10.719 39.897 13.332 L 39.897 13.333 Z " fill-rule="evenodd" fill="black" stroke="none"/></mask><path d=" M 39.897 13.333 C 39.264 12.39 40.565 11.359 41.481 12.343 C 42.095 11.331 44.313 6.925 46.291 8.782 C 48.272 10.862 44.089 12.833 42.775 13.663 C 43.969 14.819 42.614 15.814 41.872 15.309 C 44.359 18.191 45.995 21.827 46.392 25.829 C 46.821 25.066 48.146 25.342 48.103 26.549 C 49.253 26.267 53.936 24.721 54.022 27.432 C 53.952 30.305 49.601 28.74 48.085 28.398 C 48.107 29.833 46.87 29.838 46.425 29.245 C 46.107 33.277 44.53 36.955 42.088 39.888 C 42.918 39.689 43.629 40.804 42.757 41.616 C 43.77 42.23 48.175 44.448 46.318 46.426 C 44.238 48.407 42.267 44.224 41.437 42.91 C 40.428 43.951 39.543 43.053 39.668 42.313 C 36.847 44.677 33.329 46.236 29.468 46.64 C 29.849 47.19 29.495 48.138 28.471 48.102 C 28.753 49.252 30.3 53.935 27.588 54.021 C 24.716 53.951 26.281 49.6 26.623 48.084 C 25.387 48.103 25.212 47.188 25.566 46.65 C 21.747 46.27 18.262 44.761 15.446 42.462 C 15.335 43.107 14.553 43.661 13.679 42.759 C 12.849 44.073 10.879 48.256 8.799 46.274 C 6.942 44.296 11.347 42.078 12.36 41.464 C 11.602 40.758 12.04 39.824 12.712 39.722 C 10.365 36.839 8.847 33.256 8.519 29.334 C 8.023 29.833 6.916 29.756 6.937 28.397 C 5.421 28.739 1.07 30.304 1 27.432 C 1.086 24.72 5.769 26.267 6.919 26.549 C 6.878 25.405 8.066 25.097 8.556 25.717 C 8.958 21.89 10.494 18.402 12.823 15.594 C 12.112 15.617 11.354 14.771 12.342 13.813 C 11.028 12.983 6.844 11.013 8.826 8.933 C 10.804 7.076 13.022 11.481 13.636 12.494 C 14.408 11.664 15.454 12.267 15.384 13.041 C 18.366 10.583 22.111 9.018 26.21 8.751 C 25.241 8.709 24.893 6.908 26.623 6.935 C 26.281 5.419 24.716 1.067 27.588 0.998 C 30.3 1.084 28.753 5.767 28.471 6.917 C 29.857 6.868 30.017 8.623 28.784 8.753 L 28.784 8.754 C 33.019 9.044 36.874 10.719 39.897 13.332 L 39.897 13.333 Z " fill-rule="evenodd" fill="none" mask="url(#_mask_uyUL1i6L7jiJsen2PspqCgX75irhYZ21)" vector-effect="non-scaling-stroke" stroke-width="1" stroke="rgb(0,0,0)" stroke-linejoin="miter" stroke-linecap="butt" stroke-miterlimit="2.61313"/><path d=" M 39.897 13.333 C 39.264 12.39 40.565 11.359 41.481 12.343 C 42.095 11.331 44.313 6.925 46.291 8.782 C 48.272 10.862 44.089 12.833 42.775 13.663 C 43.969 14.819 42.614 15.814 41.872 15.309 C 44.359 18.191 45.995 21.827 46.392 25.829 C 46.821 25.066 48.146 25.342 48.103 26.549 C 49.253 26.267 53.936 24.721 54.022 27.432 C 53.952 30.305 49.601 28.74 48.085 28.398 C 48.107 29.833 46.87 29.838 46.425 29.245 C 46.107 33.277 44.53 36.955 42.088 39.888 C 42.918 39.689 43.629 40.804 42.757 41.616 C 43.77 42.23 48.175 44.448 46.318 46.426 C 44.238 48.407 42.267 44.224 41.437 42.91 C 40.428 43.951 39.543 43.053 39.668 42.313 C 36.847 44.677 33.329 46.236 29.468 46.64 C 29.849 47.19 29.495 48.138 28.471 48.102 C 28.753 49.252 30.3 53.935 27.588 54.021 C 24.716 53.951 26.281 49.6 26.623 48.084 C 25.387 48.103 25.212 47.188 25.566 46.65 C 21.747 46.27 18.262 44.761 15.446 42.462 C 15.335 43.107 14.553 43.661 13.679 42.759 C 12.849 44.073 10.879 48.256 8.799 46.274 C 6.942 44.296 11.347 42.078 12.36 41.464 C 11.602 40.758 12.04 39.824 12.712 39.722 C 10.365 36.839 8.847 33.256 8.519 29.334 C 8.023 29.833 6.916 29.756 6.937 28.397 C 5.421 28.739 1.07 30.304 1 27.432 C 1.086 24.72 5.769 26.267 6.919 26.549 C 6.878 25.405 8.066 25.097 8.556 25.717 C 8.958 21.89 10.494 18.402 12.823 15.594 C 12.112 15.617 11.354 14.771 12.342 13.813 C 11.028 12.983 6.844 11.013 8.826 8.933 C 10.804 7.076 13.022 11.481 13.636 12.494 C 14.408 11.664 15.454 12.267 15.384 13.041 C 18.366 10.583 22.111 9.018 26.21 8.751 C 25.241 8.709 24.893 6.908 26.623 6.935 C 26.281 5.419 24.716 1.067 27.588 0.998 C 30.3 1.084 28.753 5.767 28.471 6.917 C 29.857 6.868 30.017 8.623 28.784 8.753 L 28.784 8.754 C 33.019 9.044 36.874 10.719 39.897 13.332 L 39.897 13.333 Z  M 18.253 16.987 L 18.425 17.177 C 18.908 16.719 19.939 17.277 19.55 18.186 C 21.677 20.211 23.714 22.267 25.513 24.384 C 25.929 24.14 26.396 23.971 26.893 23.897 C 26.634 21.086 26.546 18.189 26.614 15.214 C 25.776 14.9 25.816 13.763 26.661 13.599 C 23.457 13.779 20.538 15.024 18.253 16.987 L 18.253 16.987 Z  M 13.374 26.462 L 13.617 26.473 C 13.634 25.808 14.759 25.474 15.126 26.391 C 18.08 26.319 20.991 26.333 23.775 26.562 C 23.901 26.161 24.091 25.788 24.332 25.455 C 22.229 23.694 20.183 21.762 18.189 19.673 C 17.372 20.046 16.595 19.208 17.083 18.494 L 16.893 18.325 C 14.932 20.529 13.65 23.351 13.374 26.462 L 13.374 26.462 Z  M 16.737 36.952 L 17.043 36.675 C 16.584 36.192 17.143 35.161 18.051 35.55 C 20.038 33.463 22.055 31.463 24.13 29.689 C 23.859 29.23 23.68 28.709 23.619 28.153 C 20.895 28.392 18.091 28.473 15.214 28.406 C 14.9 29.247 13.759 29.204 13.599 28.355 L 13.332 28.37 C 13.478 31.643 14.736 34.626 16.737 36.952 L 16.737 36.952 Z  M 26.642 41.853 L 26.666 41.422 C 25.816 41.261 25.774 40.12 26.614 39.806 C 26.549 36.981 26.625 34.227 26.855 31.549 C 26.254 31.454 25.699 31.22 25.224 30.882 C 23.489 32.945 21.589 34.953 19.539 36.912 C 19.911 37.728 19.074 38.505 18.36 38.018 L 18.088 38.321 C 20.393 40.363 23.368 41.665 26.642 41.853 Z  M 36.873 38.299 L 36.757 38.169 C 36.043 38.656 35.205 37.879 35.577 37.063 C 33.469 35.049 31.52 32.983 29.744 30.858 C 29.367 31.133 28.938 31.341 28.475 31.465 C 28.687 34.183 28.699 37.018 28.629 39.895 C 29.546 40.262 29.212 41.387 28.547 41.404 L 28.568 41.835 C 31.745 41.591 34.629 40.296 36.873 38.299 L 36.873 38.299 Z  M 41.603 28.365 L 41.422 28.355 C 41.262 29.204 40.12 29.247 39.806 28.406 C 36.9 28.473 34.067 28.391 31.316 28.145 C 31.256 28.703 31.078 29.226 30.806 29.688 C 32.945 31.499 35.02 33.554 37.065 35.701 C 37.973 35.312 38.532 36.344 38.074 36.826 L 38.204 36.944 C 40.203 34.618 41.458 31.636 41.603 28.365 Z  M 38.048 18.331 L 38.034 18.343 C 38.521 19.057 37.744 19.895 36.928 19.522 C 34.876 21.67 32.77 23.653 30.603 25.455 C 30.846 25.79 31.036 26.165 31.163 26.569 C 33.972 26.334 36.912 26.319 39.895 26.391 C 40.263 25.474 41.387 25.808 41.404 26.473 L 41.562 26.466 C 41.287 23.356 40.007 20.535 38.048 18.331 L 38.048 18.331 Z  M 28.441 23.978 C 28.803 24.072 29.145 24.217 29.458 24.405 C 31.292 22.227 33.381 20.115 35.566 18.035 C 35.177 17.127 36.209 16.568 36.691 17.027 L 36.707 17.009 C 34.499 15.104 31.697 13.87 28.616 13.623 C 29.234 13.712 29.514 14.771 28.629 15.125 C 28.703 18.151 28.686 21.133 28.44 23.979 L 28.441 23.978 Z " fill-rule="evenodd" fill="none" vector-effect="non-scaling-stroke" stroke-width="1.5" stroke="rgb(80,223,31)" stroke-linejoin="miter" stroke-linecap="butt" stroke-miterlimit="2.61313"/><path d=" M 78.473 15.271 C 79.08 15.866 79.383 16.607 79.383 17.494 C 79.383 18.545 79.016 19.438 78.28 20.173 C 77.545 20.909 76.652 21.276 75.601 21.276 C 74.667 21.276 73.909 20.979 73.325 20.383 C 72.741 19.788 72.449 19.023 72.449 18.09 C 72.449 17.039 72.811 16.158 73.535 15.446 C 74.259 14.734 75.157 14.378 76.231 14.378 C 77.118 14.378 77.866 14.676 78.472 15.271 L 78.473 15.271 Z  M 89.881 27.054 C 89.881 25.957 89.309 25.409 88.165 25.409 C 86.227 25.409 84.908 26.856 84.208 29.751 C 86.075 29.751 87.371 29.611 88.095 29.331 C 89.285 28.864 89.881 28.105 89.881 27.054 L 89.881 27.054 Z  M 114.353 27.895 C 114.353 26.541 113.81 25.864 112.718 25.864 C 111.697 25.864 110.775 26.687 109.952 28.333 C 109.129 29.979 108.714 31.829 108.714 33.883 C 108.714 35.984 109.292 37.035 110.454 37.035 C 111.685 37.035 112.683 35.832 113.448 33.428 C 114.049 31.537 114.352 29.693 114.352 27.895 L 114.353 27.895 Z  M 161.103 27.86 C 161.103 26.529 160.554 25.864 159.457 25.864 C 158.43 25.864 157.502 26.687 156.673 28.333 C 155.845 29.979 155.43 31.829 155.43 33.883 C 155.43 35.984 156.014 37.035 157.181 37.035 C 158.418 37.035 159.422 35.832 160.193 33.428 C 160.799 31.537 161.103 29.681 161.103 27.86 L 161.103 27.86 Z  M 219.992 27.054 C 219.992 25.957 219.42 25.409 218.276 25.409 C 216.338 25.409 215.019 26.856 214.319 29.751 C 216.187 29.751 217.482 29.611 218.206 29.331 C 219.396 28.864 219.992 28.105 219.992 27.054 Z  M 72.37 15.709 L 71.6 19.841 L 64.876 19.841 L 63.721 26.004 L 70.269 26.004 L 69.534 30.136 L 62.95 30.136 L 61.094 40.221 L 54.476 40.221 L 59.028 15.709 L 72.37 15.709 L 72.37 15.709 Z  M 117.084 14.483 L 123.387 14.483 L 118.555 40.221 L 112.286 40.221 L 112.671 38.365 C 111.271 39.206 110.337 39.731 109.87 39.941 C 108.866 40.408 107.851 40.642 106.823 40.642 C 105.329 40.642 104.15 40.035 103.286 38.821 C 102.423 37.607 101.991 35.949 101.991 33.848 C 101.991 30.743 102.901 28.041 104.722 25.741 C 106.543 23.442 108.679 22.292 111.13 22.292 C 112.811 22.292 114.165 23.086 115.192 24.673 L 117.083 14.483 L 117.084 14.483 Z  M 104.461 14.483 L 99.664 40.221 L 93.395 40.221 L 98.193 14.483 L 104.461 14.483 Z  M 93.26 23.5 C 94.345 24.306 94.888 25.42 94.888 26.844 C 94.888 29.062 93.522 30.685 90.791 31.712 C 88.853 32.459 86.554 32.832 83.892 32.832 L 83.892 33.217 C 83.892 35.412 84.919 36.509 86.974 36.509 C 88.118 36.509 89.67 36.019 91.631 35.038 L 92.961 37.84 C 89.39 39.707 86.425 40.641 84.067 40.641 C 81.989 40.641 80.378 40.046 79.234 38.855 C 77.904 37.478 77.238 35.715 77.238 33.567 C 77.238 32.097 77.553 30.62 78.184 29.138 C 78.814 27.655 79.666 26.412 80.74 25.408 C 82.958 23.33 85.631 22.292 88.759 22.292 C 90.674 22.292 92.174 22.694 93.259 23.5 L 93.26 23.5 Z  M 132.956 15.709 C 133.703 20.985 134.299 26.261 134.742 31.537 C 136.82 26.774 139.365 21.498 142.376 15.709 L 150.921 15.709 L 146.368 40.221 L 139.715 40.221 L 143.532 21.136 C 140.637 27.416 137.544 33.778 134.252 40.221 L 130.75 40.221 C 130.05 35.412 129.303 29.05 128.509 21.136 L 125.182 40.221 L 119.615 40.221 L 124.202 15.709 L 132.956 15.709 L 132.956 15.709 Z  M 78.123 22.712 L 74.866 40.221 L 68.598 40.221 L 71.854 22.712 L 78.123 22.712 Z  M 188.226 14.378 C 189.113 14.378 189.86 14.676 190.467 15.271 C 191.074 15.866 191.377 16.607 191.377 17.494 C 191.377 18.545 191.01 19.438 190.274 20.173 C 189.539 20.909 188.646 21.276 187.595 21.276 C 186.661 21.276 185.903 20.979 185.319 20.383 C 184.735 19.788 184.443 19.023 184.443 18.09 C 184.443 17.039 184.805 16.158 185.529 15.446 C 186.252 14.734 187.151 14.378 188.225 14.378 L 188.226 14.378 Z  M 178.236 22.747 C 178.668 22.444 179.222 22.292 179.899 22.292 C 180.857 22.292 181.802 22.759 182.736 23.693 L 179.794 28.805 C 179.164 28.548 178.627 28.42 178.183 28.42 C 176.923 28.42 175.942 28.911 175.242 29.891 C 174.728 30.592 174.273 31.992 173.876 34.093 L 172.721 40.222 L 166.452 40.222 L 169.709 22.712 L 175.977 22.712 L 175.277 26.564 L 176.608 24.638 C 177.261 23.681 177.804 23.051 178.236 22.747 L 178.236 22.747 Z  M 183.849 22.712 L 190.117 22.712 L 186.86 40.222 L 180.592 40.222 L 183.849 22.712 Z  M 168.597 22.712 L 165.305 40.222 L 159.037 40.222 L 159.422 38.366 C 157.998 39.229 157.064 39.755 156.62 39.941 C 155.617 40.408 154.601 40.642 153.574 40.642 C 152.08 40.642 150.907 40.041 150.055 38.838 C 149.203 37.636 148.777 35.973 148.777 33.849 C 148.777 30.744 149.681 28.041 151.49 25.742 C 153.3 23.442 155.43 22.293 157.881 22.293 C 159.562 22.293 160.916 23.086 161.943 24.674 L 162.328 22.713 L 168.597 22.713 L 168.597 22.712 Z  M 207.541 25.654 C 207.541 26.331 207.401 27.428 207.121 28.946 L 205.054 40.222 L 198.751 40.222 L 200.642 29.996 C 200.829 28.992 200.922 28.385 200.922 28.175 C 200.922 27.732 200.788 27.358 200.519 27.055 C 200.251 26.751 199.918 26.599 199.521 26.599 C 198.518 26.599 197.654 27.23 196.93 28.49 C 196.417 29.378 195.961 30.883 195.564 33.008 L 194.198 40.221 L 187.93 40.221 L 191.222 22.712 L 197.49 22.712 L 196.825 26.144 C 198.762 23.576 201.062 22.292 203.723 22.292 C 204.914 22.292 205.848 22.584 206.525 23.168 C 207.202 23.751 207.54 24.58 207.54 25.654 L 207.541 25.654 Z  M 224.999 26.844 C 224.999 29.062 223.634 30.685 220.902 31.712 C 218.965 32.459 216.665 32.832 214.004 32.832 L 214.004 33.217 C 214.004 35.412 215.031 36.509 217.085 36.509 C 218.229 36.509 219.782 36.019 221.742 35.038 L 223.073 37.84 C 219.501 39.707 216.536 40.641 214.178 40.641 C 212.101 40.641 210.49 40.046 209.346 38.855 C 208.015 37.478 207.35 35.715 207.35 33.567 C 207.35 32.097 207.665 30.62 208.295 29.138 C 208.925 27.655 209.778 26.412 210.852 25.408 C 213.07 23.33 215.742 22.292 218.871 22.292 C 220.785 22.292 222.285 22.694 223.371 23.5 C 224.456 24.305 224.999 25.42 224.999 26.844 L 224.999 26.844 Z " fill-rule="evenodd" fill="none" vector-effect="non-scaling-stroke" stroke-width="1.5" stroke="rgb(80,223,31)" stroke-linejoin="miter" stroke-linecap="butt" stroke-miterlimit="2.61313"/><path d=" M 146.016 42.211 L 145.663 44.19 L 142.427 44.19 L 141.924 46.839 L 145.043 46.839 L 144.691 48.818 L 141.572 48.818 L 140.985 51.971 L 144.792 51.971 L 144.423 53.949 L 137.447 53.949 L 139.627 42.211 L 146.016 42.211 L 146.016 42.211 Z  M 219.026 48.047 C 219.026 47.398 218.763 47.074 218.238 47.074 C 217.746 47.074 217.299 47.468 216.896 48.256 C 216.494 49.044 216.292 49.93 216.292 50.914 C 216.292 51.92 216.572 52.423 217.131 52.423 C 217.712 52.423 218.198 51.847 218.589 50.696 C 218.88 49.835 219.025 48.952 219.025 48.046 L 219.026 48.047 Z  M 190.926 47.644 C 190.926 47.119 190.652 46.856 190.104 46.856 C 189.176 46.856 188.545 47.549 188.209 48.935 C 189.104 48.935 189.724 48.868 190.071 48.734 C 190.641 48.511 190.926 48.147 190.926 47.644 L 190.926 47.644 Z  M 182.448 47.644 C 182.448 47.119 182.174 46.856 181.626 46.856 C 180.698 46.856 180.066 47.549 179.731 48.935 C 180.625 48.935 181.246 48.868 181.592 48.734 C 182.163 48.511 182.447 48.147 182.447 47.644 L 182.448 47.644 Z  M 160.476 48.047 C 160.476 47.398 160.214 47.074 159.688 47.074 C 159.196 47.074 158.749 47.468 158.347 48.256 C 157.944 49.044 157.743 49.93 157.743 50.914 C 157.743 51.92 158.023 52.423 158.581 52.423 C 159.163 52.423 159.649 51.847 160.04 50.696 C 160.331 49.835 160.476 48.952 160.476 48.046 L 160.476 48.047 Z  M 155.865 47.015 C 156.737 45.914 157.76 45.363 158.934 45.363 C 159.739 45.363 160.387 45.743 160.879 46.504 L 161.047 45.565 L 164.065 45.565 L 162.891 51.87 C 162.5 53.949 161.918 55.447 161.147 56.364 C 160.141 57.549 158.788 58.142 157.089 58.142 C 156.105 58.142 155.015 57.896 153.819 57.404 L 154.607 55.475 C 155.311 55.934 156.032 56.163 156.77 56.163 C 157.698 56.163 158.397 55.875 158.867 55.302 C 159.191 54.911 159.426 54.335 159.571 53.583 L 159.672 53.061 C 159.001 53.463 158.554 53.715 158.33 53.815 C 157.849 54.039 157.363 54.151 156.871 54.151 C 156.155 54.151 155.591 53.86 155.177 53.278 C 154.763 52.697 154.557 51.903 154.557 50.897 C 154.557 49.41 154.993 48.116 155.865 47.015 L 155.865 47.015 Z  M 154.42 46.973 C 154.42 47.297 154.353 47.823 154.219 48.55 L 153.23 53.949 L 150.211 53.949 L 151.117 49.053 C 151.206 48.572 151.251 48.281 151.251 48.181 C 151.251 47.968 151.186 47.789 151.058 47.644 C 150.93 47.499 150.77 47.426 150.58 47.426 C 150.1 47.426 149.686 47.728 149.339 48.332 C 149.093 48.757 148.875 49.478 148.685 50.495 L 148.031 53.949 L 145.029 53.949 L 146.606 45.565 L 149.608 45.565 L 149.289 47.208 C 150.217 45.979 151.318 45.364 152.592 45.364 C 153.163 45.364 153.61 45.503 153.934 45.783 C 154.258 46.062 154.42 46.459 154.42 46.973 L 154.42 46.973 Z  M 168.37 43.066 C 168.37 43.569 168.194 43.996 167.842 44.349 C 167.49 44.701 167.063 44.877 166.559 44.877 C 166.112 44.877 165.749 44.734 165.469 44.449 C 165.19 44.165 165.05 43.798 165.05 43.351 C 165.05 42.848 165.223 42.426 165.57 42.085 C 165.917 41.744 166.347 41.573 166.861 41.573 C 167.286 41.573 167.644 41.716 167.934 42.001 C 168.225 42.286 168.37 42.641 168.37 43.066 L 168.37 43.066 Z  M 171.495 45.565 L 171.176 47.208 C 172.104 45.978 173.205 45.363 174.48 45.363 C 175.05 45.363 175.497 45.503 175.821 45.783 C 176.146 46.062 176.308 46.459 176.308 46.973 C 176.308 47.297 176.241 47.823 176.106 48.55 L 175.117 53.949 L 172.099 53.949 L 173.004 49.053 C 173.094 48.572 173.138 48.281 173.138 48.181 C 173.138 47.968 173.074 47.789 172.946 47.644 C 172.817 47.499 172.658 47.426 172.468 47.426 C 171.987 47.426 171.573 47.728 171.227 48.332 C 170.981 48.757 170.763 49.478 170.573 50.495 L 169.919 53.949 L 166.917 53.949 L 168.493 45.565 L 171.495 45.565 L 171.495 45.565 Z  M 167.767 45.565 L 166.207 53.949 L 163.205 53.949 L 164.765 45.565 L 167.767 45.565 Z  M 186.55 46.856 C 187.612 45.861 188.892 45.363 190.39 45.363 C 191.306 45.363 192.025 45.556 192.544 45.942 C 193.064 46.328 193.324 46.861 193.324 47.543 C 193.324 48.605 192.67 49.383 191.362 49.874 C 190.434 50.232 189.333 50.411 188.058 50.411 L 188.058 50.595 C 188.058 51.646 188.55 52.172 189.534 52.172 C 190.082 52.172 190.825 51.937 191.765 51.467 L 192.402 52.809 C 190.691 53.703 189.271 54.151 188.142 54.151 C 187.148 54.151 186.376 53.865 185.828 53.295 C 185.191 52.636 184.873 51.792 184.873 50.763 C 184.873 50.059 185.023 49.352 185.325 48.642 C 185.627 47.932 186.035 47.337 186.549 46.856 L 186.55 46.856 Z  M 184.846 47.543 C 184.846 48.605 184.192 49.383 182.884 49.874 C 181.956 50.232 180.855 50.411 179.58 50.411 L 179.58 50.595 C 179.58 51.646 180.072 52.172 181.056 52.172 C 181.604 52.172 182.347 51.937 183.287 51.467 L 183.924 52.809 C 182.213 53.703 180.793 54.151 179.664 54.151 C 178.669 54.151 177.898 53.865 177.35 53.295 C 176.713 52.636 176.394 51.792 176.394 50.763 C 176.394 50.059 176.545 49.352 176.847 48.642 C 177.149 47.932 177.557 47.337 178.071 46.856 C 179.133 45.861 180.413 45.364 181.911 45.364 C 182.828 45.364 183.546 45.556 184.066 45.942 C 184.586 46.328 184.846 46.862 184.846 47.544 L 184.846 47.543 Z  M 205.032 43.066 C 205.032 43.569 204.856 43.996 204.504 44.349 C 204.152 44.701 203.724 44.877 203.221 44.877 C 202.774 44.877 202.411 44.734 202.131 44.449 C 201.852 44.165 201.712 43.798 201.712 43.351 C 201.712 42.848 201.885 42.426 202.232 42.085 C 202.579 41.744 203.009 41.573 203.523 41.573 C 203.948 41.573 204.305 41.716 204.596 42.001 C 204.887 42.286 205.032 42.641 205.032 43.066 L 205.032 43.066 Z  M 201.427 45.565 L 204.429 45.565 L 202.869 53.949 L 199.867 53.949 L 201.427 45.565 Z  M 200.756 46.034 L 199.347 48.482 C 199.046 48.359 198.789 48.298 198.576 48.298 C 197.973 48.298 197.503 48.533 197.168 49.002 C 196.922 49.338 196.704 50.009 196.514 51.015 L 195.96 53.949 L 192.959 53.949 L 194.518 45.565 L 197.52 45.565 L 197.184 47.409 L 197.822 46.487 C 198.135 46.028 198.395 45.727 198.601 45.581 C 198.808 45.436 199.074 45.363 199.398 45.363 C 199.856 45.363 200.309 45.587 200.756 46.034 L 200.756 46.034 Z  M 212.97 46.973 C 212.97 47.297 212.902 47.823 212.768 48.55 L 211.779 53.949 L 208.761 53.949 L 209.666 49.053 C 209.756 48.572 209.8 48.281 209.8 48.181 C 209.8 47.968 209.736 47.789 209.608 47.644 C 209.479 47.499 209.32 47.426 209.13 47.426 C 208.649 47.426 208.235 47.728 207.889 48.332 C 207.643 48.757 207.425 49.478 207.235 50.495 L 206.581 53.949 L 203.579 53.949 L 205.155 45.565 L 208.157 45.565 L 207.838 47.208 C 208.766 45.979 209.868 45.364 211.142 45.364 C 211.712 45.364 212.159 45.503 212.484 45.783 C 212.808 46.062 212.97 46.459 212.97 46.973 L 212.97 46.973 Z  M 222.615 45.565 L 221.441 51.87 C 221.05 53.949 220.468 55.447 219.697 56.364 C 218.691 57.549 217.338 58.142 215.639 58.142 C 214.655 58.142 213.565 57.896 212.369 57.404 L 213.157 55.475 C 213.861 55.934 214.582 56.163 215.32 56.163 C 216.248 56.163 216.947 55.875 217.416 55.302 C 217.741 54.911 217.976 54.335 218.121 53.583 L 218.221 53.061 C 217.551 53.463 217.103 53.715 216.88 53.815 C 216.399 54.039 215.913 54.151 215.421 54.151 C 214.705 54.151 214.141 53.86 213.727 53.278 C 213.313 52.697 213.107 51.903 213.107 50.897 C 213.107 49.41 213.543 48.116 214.414 47.015 C 215.287 45.914 216.309 45.363 217.483 45.363 C 218.288 45.363 218.937 45.743 219.429 46.504 L 219.596 45.565 L 222.615 45.565 L 222.615 45.565 Z " fill-rule="evenodd" fill="none" vector-effect="non-scaling-stroke" stroke-width="1.5" stroke="rgb(80,223,31)" stroke-linejoin="miter" stroke-linecap="butt" stroke-miterlimit="2.61313"/><mask id="_mask_idYpgzjkJVfqpSL9goRbafBZ8eUSwsCp" x="-200%" y="-200%" width="400%" height="400%"><rect x="-200%" y="-200%" width="400%" height="400%" style="fill:white;"/><path d=" M 26.395 8.74 L 26.395 8.739 L 26.383 8.74 L 26.395 8.74 Z " fill-rule="evenodd" fill="black" stroke="none"/></mask><path d=" M 26.395 8.74 L 26.395 8.739 L 26.383 8.74 L 26.395 8.74 Z " fill-rule="evenodd" fill="rgb(255,255,255)" mask="url(#_mask_idYpgzjkJVfqpSL9goRbafBZ8eUSwsCp)" vector-effect="non-scaling-stroke" stroke-width="6" stroke="rgb(80,223,31)" stroke-linejoin="miter" stroke-linecap="butt" stroke-miterlimit="2.61313"/></g><path d=" M 72.37 15.709 L 71.6 19.841 L 64.876 19.841 L 63.721 26.004 L 70.269 26.004 L 69.534 30.136 L 62.95 30.136 L 61.095 40.221 L 54.476 40.221 L 59.028 15.709 L 72.37 15.709 L 72.37 15.709 Z  M 79.384 17.494 C 79.384 18.545 79.016 19.438 78.28 20.173 C 77.545 20.909 76.652 21.276 75.601 21.276 C 74.668 21.276 73.909 20.979 73.325 20.383 C 72.742 19.788 72.45 19.023 72.45 18.09 C 72.45 17.039 72.812 16.158 73.535 15.446 C 74.259 14.734 75.158 14.378 76.232 14.378 C 77.119 14.378 77.866 14.676 78.473 15.271 C 79.08 15.866 79.383 16.607 79.383 17.494 L 79.384 17.494 Z  M 78.123 22.712 L 74.866 40.221 L 68.598 40.221 L 71.855 22.712 L 78.123 22.712 L 78.123 22.712 Z  M 94.888 26.844 C 94.888 29.062 93.523 30.685 90.791 31.712 C 88.854 32.459 86.554 32.832 83.893 32.832 L 83.893 33.217 C 83.893 35.412 84.92 36.509 86.974 36.509 C 88.118 36.509 89.67 36.019 91.631 35.038 L 92.962 37.84 C 89.39 39.707 86.425 40.641 84.067 40.641 C 81.99 40.641 80.379 40.046 79.235 38.855 C 77.904 37.478 77.239 35.715 77.239 33.567 C 77.239 32.097 77.554 30.62 78.184 29.138 C 78.814 27.655 79.667 26.412 80.741 25.408 C 82.959 23.33 85.631 22.292 88.76 22.292 C 90.674 22.292 92.174 22.694 93.26 23.5 C 94.345 24.305 94.888 25.42 94.888 26.844 L 94.888 26.844 Z  M 89.881 27.054 C 89.881 25.957 89.309 25.409 88.165 25.409 C 86.227 25.409 84.908 26.856 84.208 29.751 C 86.075 29.751 87.371 29.611 88.095 29.331 C 89.285 28.864 89.881 28.105 89.881 27.054 L 89.881 27.054 Z  M 104.461 14.483 L 99.664 40.221 L 93.396 40.221 L 98.193 14.483 L 104.461 14.483 L 104.461 14.483 Z  M 123.387 14.483 L 118.555 40.221 L 112.287 40.221 L 112.672 38.365 C 111.271 39.206 110.337 39.731 109.87 39.941 C 108.866 40.408 107.851 40.642 106.824 40.642 C 105.33 40.642 104.151 40.035 103.287 38.821 C 102.423 37.607 101.991 35.949 101.991 33.848 C 101.991 30.743 102.901 28.041 104.722 25.741 C 106.543 23.442 108.679 22.292 111.131 22.292 C 112.811 22.292 114.165 23.086 115.193 24.673 L 117.084 14.483 L 123.387 14.483 L 123.387 14.483 Z  M 114.353 27.895 C 114.353 26.541 113.81 25.864 112.719 25.864 C 111.697 25.864 110.775 26.687 109.952 28.333 C 109.129 29.979 108.715 31.829 108.715 33.883 C 108.715 35.984 109.293 37.035 110.454 37.035 C 111.686 37.035 112.684 35.832 113.448 33.428 C 114.049 31.537 114.353 29.693 114.353 27.895 L 114.353 27.895 Z  M 150.921 15.709 L 146.369 40.221 L 139.715 40.221 L 143.532 21.136 C 140.638 27.416 137.544 33.778 134.252 40.221 L 130.751 40.221 C 130.05 35.412 129.303 29.05 128.51 21.136 L 125.183 40.221 L 119.615 40.221 L 124.202 15.709 L 132.957 15.709 C 133.704 20.985 134.299 26.261 134.743 31.537 C 136.82 26.774 139.365 21.498 142.377 15.709 L 150.921 15.709 L 150.921 15.709 Z  M 168.597 22.712 L 165.305 40.221 L 159.037 40.221 L 159.422 38.365 C 157.998 39.229 157.064 39.754 156.621 39.941 C 155.617 40.408 154.602 40.642 153.574 40.642 C 152.08 40.642 150.907 40.041 150.055 38.838 C 149.203 37.636 148.777 35.973 148.777 33.848 C 148.777 30.743 149.682 28.041 151.491 25.742 C 153.3 23.442 155.431 22.292 157.882 22.292 C 159.563 22.292 160.917 23.086 161.944 24.674 L 162.329 22.713 L 168.597 22.713 L 168.597 22.712 Z  M 161.103 27.86 C 161.103 26.529 160.555 25.864 159.458 25.864 C 158.431 25.864 157.503 26.687 156.674 28.333 C 155.845 29.979 155.431 31.829 155.431 33.883 C 155.431 35.984 156.014 37.035 157.182 37.035 C 158.419 37.035 159.423 35.832 160.193 33.428 C 160.8 31.537 161.103 29.681 161.103 27.86 L 161.103 27.86 Z  M 182.737 23.693 L 179.795 28.805 C 179.165 28.548 178.628 28.42 178.184 28.42 C 176.924 28.42 175.943 28.911 175.243 29.891 C 174.729 30.592 174.274 31.992 173.877 34.093 L 172.721 40.222 L 166.453 40.222 L 169.71 22.712 L 175.978 22.712 L 175.278 26.564 L 176.608 24.638 C 177.262 23.681 177.805 23.051 178.237 22.747 C 178.669 22.444 179.223 22.292 179.9 22.292 C 180.857 22.292 181.803 22.759 182.737 23.693 L 182.737 23.693 Z  M 191.378 17.494 C 191.378 18.545 191.01 19.438 190.275 20.173 C 189.539 20.909 188.646 21.276 187.596 21.276 C 186.662 21.276 185.903 20.979 185.32 20.383 C 184.736 19.788 184.444 19.023 184.444 18.09 C 184.444 17.039 184.806 16.158 185.53 15.446 C 186.253 14.734 187.152 14.378 188.226 14.378 C 189.113 14.378 189.86 14.676 190.467 15.271 C 191.074 15.866 191.378 16.607 191.378 17.494 L 191.378 17.494 Z  M 190.118 22.712 L 186.861 40.221 L 180.593 40.221 L 183.849 22.712 L 190.118 22.712 Z  M 207.541 25.654 C 207.541 26.331 207.401 27.428 207.121 28.945 L 205.055 40.221 L 198.752 40.221 L 200.643 29.996 C 200.829 28.992 200.923 28.385 200.923 28.175 C 200.923 27.731 200.788 27.358 200.52 27.054 C 200.252 26.751 199.919 26.599 199.522 26.599 C 198.518 26.599 197.654 27.229 196.931 28.49 C 196.417 29.377 195.962 30.883 195.565 33.007 L 194.199 40.221 L 187.931 40.221 L 191.223 22.712 L 197.491 22.712 L 196.825 26.144 C 198.763 23.576 201.063 22.292 203.724 22.292 C 204.915 22.292 205.848 22.583 206.525 23.167 C 207.202 23.751 207.541 24.58 207.541 25.654 L 207.541 25.654 Z  M 225 26.844 C 225 29.062 223.634 30.684 220.903 31.712 C 218.965 32.459 216.666 32.832 214.004 32.832 L 214.004 33.217 C 214.004 35.412 215.032 36.509 217.086 36.509 C 218.23 36.509 219.782 36.019 221.743 35.038 L 223.074 37.839 C 219.502 39.707 216.537 40.641 214.179 40.641 C 212.101 40.641 210.49 40.045 209.346 38.855 C 208.016 37.478 207.35 35.715 207.35 33.567 C 207.35 32.096 207.665 30.62 208.296 29.137 C 208.926 27.655 209.778 26.412 210.852 25.408 C 213.07 23.33 215.743 22.292 218.871 22.292 C 220.786 22.292 222.286 22.694 223.371 23.5 C 224.457 24.305 224.999 25.42 224.999 26.844 L 225 26.844 Z  M 219.992 27.054 C 219.992 25.957 219.42 25.408 218.276 25.408 C 216.339 25.408 215.02 26.856 214.32 29.751 C 216.187 29.751 217.483 29.611 218.206 29.33 C 219.397 28.864 219.992 28.105 219.992 27.054 Z " fill="rgb(0,0,128)"/><path d=" M 146.016 42.211 L 145.663 44.19 L 142.427 44.19 L 141.924 46.839 L 145.043 46.839 L 144.691 48.818 L 141.572 48.818 L 140.985 51.971 L 144.792 51.971 L 144.423 53.949 L 137.447 53.949 L 139.627 42.211 L 146.016 42.211 L 146.016 42.211 Z  M 154.42 46.973 C 154.42 47.297 154.353 47.823 154.219 48.55 L 153.229 53.949 L 150.211 53.949 L 151.116 49.053 C 151.206 48.572 151.251 48.282 151.251 48.181 C 151.251 47.969 151.186 47.79 151.058 47.644 C 150.929 47.499 150.77 47.426 150.58 47.426 C 150.099 47.426 149.686 47.728 149.339 48.332 C 149.093 48.757 148.875 49.478 148.685 50.495 L 148.031 53.95 L 145.029 53.95 L 146.606 45.565 L 149.607 45.565 L 149.289 47.208 C 150.217 45.979 151.318 45.364 152.592 45.364 C 153.162 45.364 153.609 45.504 153.934 45.783 C 154.258 46.063 154.42 46.459 154.42 46.974 L 154.42 46.973 Z  M 164.065 45.565 L 162.891 51.87 C 162.5 53.949 161.918 55.448 161.147 56.364 C 160.141 57.549 158.788 58.142 157.089 58.142 C 156.105 58.142 155.015 57.896 153.819 57.404 L 154.607 55.475 C 155.311 55.934 156.032 56.163 156.77 56.163 C 157.698 56.163 158.397 55.875 158.867 55.302 C 159.191 54.911 159.426 54.335 159.571 53.583 L 159.672 53.061 C 159.001 53.463 158.554 53.715 158.33 53.815 C 157.849 54.039 157.363 54.151 156.871 54.151 C 156.155 54.151 155.591 53.86 155.177 53.279 C 154.763 52.697 154.557 51.904 154.557 50.897 C 154.557 49.411 154.993 48.117 155.865 47.015 C 156.737 45.914 157.759 45.364 158.934 45.364 C 159.738 45.364 160.387 45.744 160.879 46.504 L 161.046 45.565 L 164.065 45.565 L 164.065 45.565 Z  M 160.476 48.047 C 160.476 47.398 160.214 47.074 159.688 47.074 C 159.196 47.074 158.749 47.468 158.347 48.256 C 157.944 49.045 157.743 49.931 157.743 50.914 C 157.743 51.92 158.023 52.423 158.581 52.423 C 159.163 52.423 159.649 51.847 160.04 50.696 C 160.331 49.835 160.476 48.952 160.476 48.047 L 160.476 48.047 Z  M 168.37 43.066 C 168.37 43.569 168.194 43.997 167.842 44.349 C 167.49 44.701 167.063 44.877 166.559 44.877 C 166.112 44.877 165.749 44.735 165.469 44.45 C 165.19 44.165 165.05 43.798 165.05 43.351 C 165.05 42.848 165.223 42.426 165.57 42.085 C 165.917 41.744 166.347 41.574 166.861 41.574 C 167.286 41.574 167.644 41.716 167.934 42.001 C 168.225 42.286 168.37 42.641 168.37 43.066 L 168.37 43.066 Z  M 167.767 45.565 L 166.207 53.949 L 163.205 53.949 L 164.765 45.565 L 167.767 45.565 L 167.767 45.565 Z  M 176.308 46.973 C 176.308 47.297 176.241 47.823 176.106 48.55 L 175.117 53.949 L 172.099 53.949 L 173.004 49.053 C 173.094 48.572 173.138 48.282 173.138 48.181 C 173.138 47.969 173.074 47.79 172.946 47.644 C 172.817 47.499 172.658 47.426 172.468 47.426 C 171.987 47.426 171.573 47.728 171.227 48.332 C 170.981 48.757 170.763 49.478 170.573 50.495 L 169.919 53.95 L 166.917 53.95 L 168.493 45.565 L 171.495 45.565 L 171.176 47.208 C 172.104 45.979 173.206 45.364 174.48 45.364 C 175.05 45.364 175.497 45.504 175.822 45.783 C 176.146 46.063 176.308 46.459 176.308 46.974 L 176.308 46.973 Z  M 184.846 47.544 C 184.846 48.606 184.192 49.383 182.884 49.874 C 181.956 50.232 180.855 50.411 179.58 50.411 L 179.58 50.595 C 179.58 51.646 180.072 52.172 181.056 52.172 C 181.604 52.172 182.347 51.937 183.287 51.468 L 183.924 52.809 C 182.213 53.704 180.793 54.151 179.664 54.151 C 178.669 54.151 177.898 53.866 177.35 53.296 C 176.713 52.636 176.394 51.792 176.394 50.764 C 176.394 50.059 176.545 49.352 176.847 48.642 C 177.149 47.932 177.557 47.337 178.071 46.856 C 179.133 45.861 180.413 45.364 181.911 45.364 C 182.828 45.364 183.546 45.557 184.066 45.942 C 184.586 46.328 184.846 46.862 184.846 47.544 L 184.846 47.544 Z  M 182.448 47.644 C 182.448 47.119 182.174 46.856 181.626 46.856 C 180.698 46.856 180.067 47.549 179.731 48.935 C 180.626 48.935 181.246 48.868 181.593 48.734 C 182.163 48.511 182.448 48.147 182.448 47.644 L 182.448 47.644 Z  M 193.324 47.544 C 193.324 48.606 192.67 49.383 191.362 49.874 C 190.434 50.232 189.333 50.411 188.059 50.411 L 188.059 50.595 C 188.059 51.646 188.551 52.172 189.534 52.172 C 190.082 52.172 190.826 51.937 191.765 51.468 L 192.402 52.809 C 190.692 53.704 189.272 54.151 188.143 54.151 C 187.148 54.151 186.376 53.866 185.829 53.296 C 185.191 52.636 184.873 51.792 184.873 50.764 C 184.873 50.059 185.024 49.352 185.326 48.642 C 185.627 47.932 186.036 47.337 186.55 46.856 C 187.612 45.861 188.892 45.364 190.39 45.364 C 191.306 45.364 192.025 45.557 192.544 45.942 C 193.064 46.328 193.324 46.862 193.324 47.544 L 193.324 47.544 Z  M 190.926 47.644 C 190.926 47.119 190.652 46.856 190.105 46.856 C 189.177 46.856 188.545 47.549 188.21 48.935 C 189.104 48.935 189.724 48.868 190.071 48.734 C 190.641 48.511 190.926 48.147 190.926 47.644 L 190.926 47.644 Z  M 200.756 46.034 L 199.347 48.483 C 199.046 48.36 198.788 48.298 198.576 48.298 C 197.972 48.298 197.503 48.533 197.167 49.003 C 196.921 49.338 196.704 50.009 196.513 51.015 L 195.96 53.949 L 192.958 53.949 L 194.518 45.565 L 197.52 45.565 L 197.184 47.409 L 197.821 46.487 C 198.134 46.029 198.394 45.727 198.601 45.582 C 198.808 45.436 199.073 45.364 199.398 45.364 C 199.856 45.364 200.309 45.587 200.756 46.034 L 200.756 46.034 Z  M 205.032 43.066 C 205.032 43.569 204.856 43.997 204.504 44.349 C 204.152 44.701 203.724 44.877 203.221 44.877 C 202.774 44.877 202.41 44.735 202.131 44.45 C 201.851 44.165 201.712 43.798 201.712 43.351 C 201.712 42.848 201.885 42.426 202.232 42.085 C 202.578 41.744 203.008 41.574 203.523 41.574 C 203.947 41.574 204.305 41.716 204.596 42.001 C 204.886 42.286 205.032 42.641 205.032 43.066 L 205.032 43.066 Z  M 204.429 45.565 L 202.869 53.949 L 199.867 53.949 L 201.427 45.565 L 204.429 45.565 Z  M 212.969 46.973 C 212.969 47.297 212.902 47.823 212.768 48.55 L 211.779 53.949 L 208.76 53.949 L 209.666 49.053 C 209.755 48.572 209.8 48.282 209.8 48.181 C 209.8 47.969 209.736 47.79 209.607 47.644 C 209.479 47.499 209.32 47.426 209.13 47.426 C 208.649 47.426 208.235 47.728 207.889 48.332 C 207.643 48.757 207.425 49.478 207.235 50.495 L 206.58 53.95 L 203.579 53.95 L 205.155 45.565 L 208.157 45.565 L 207.838 47.208 C 208.766 45.979 209.867 45.364 211.142 45.364 C 211.712 45.364 212.159 45.504 212.483 45.783 C 212.807 46.063 212.97 46.459 212.97 46.974 L 212.969 46.973 Z  M 222.615 45.565 L 221.441 51.87 C 221.05 53.949 220.468 55.448 219.697 56.364 C 218.691 57.549 217.338 58.142 215.639 58.142 C 214.655 58.142 213.565 57.896 212.369 57.404 L 213.157 55.475 C 213.861 55.934 214.582 56.163 215.32 56.163 C 216.248 56.163 216.947 55.875 217.416 55.302 C 217.74 54.911 217.975 54.335 218.12 53.583 L 218.221 53.061 C 217.55 53.463 217.103 53.715 216.879 53.815 C 216.399 54.039 215.912 54.151 215.42 54.151 C 214.705 54.151 214.14 53.86 213.727 53.279 C 213.313 52.697 213.106 51.904 213.106 50.897 C 213.106 49.411 213.542 48.117 214.414 47.015 C 215.286 45.914 216.309 45.364 217.483 45.364 C 218.288 45.364 218.936 45.744 219.428 46.504 L 219.596 45.565 L 222.614 45.565 L 222.615 45.565 Z  M 219.026 48.047 C 219.026 47.398 218.763 47.074 218.238 47.074 C 217.746 47.074 217.299 47.468 216.896 48.256 C 216.494 49.045 216.293 49.931 216.293 50.914 C 216.293 51.92 216.572 52.423 217.131 52.423 C 217.712 52.423 218.198 51.847 218.59 50.696 C 218.88 49.835 219.026 48.952 219.026 48.047 L 219.026 48.047 Z " fill="rgb(0,0,128)"/><path d=" M 28.441 23.978 C 28.803 24.072 29.145 24.217 29.458 24.405 C 31.292 22.227 33.381 20.115 35.566 18.035 C 35.177 17.127 36.209 16.568 36.691 17.027 L 36.707 17.009 C 34.499 15.104 31.697 13.87 28.616 13.623 C 29.234 13.712 29.514 14.771 28.629 15.125 C 28.703 18.151 28.686 21.133 28.44 23.979 L 28.441 23.978 Z  M 39.897 13.333 C 39.264 12.39 40.564 11.359 41.481 12.343 C 42.095 11.331 44.313 6.925 46.29 8.782 C 48.272 10.862 44.089 12.833 42.775 13.663 C 43.969 14.819 42.614 15.814 41.871 15.309 C 44.359 18.191 45.995 21.827 46.391 25.829 C 46.82 25.066 48.146 25.342 48.103 26.549 C 49.253 26.267 53.936 24.721 54.021 27.432 C 53.952 30.305 49.601 28.74 48.085 28.398 C 48.107 29.833 46.87 29.838 46.425 29.245 C 46.107 33.277 44.53 36.955 42.088 39.888 C 42.918 39.689 43.629 40.804 42.757 41.616 C 43.769 42.23 48.174 44.448 46.318 46.426 C 44.238 48.407 42.267 44.224 41.437 42.91 C 40.428 43.951 39.542 43.053 39.668 42.313 C 36.846 44.677 33.329 46.236 29.467 46.64 C 29.849 47.19 29.495 48.138 28.471 48.102 C 28.753 49.252 30.3 53.935 27.588 54.021 C 24.716 53.951 26.281 49.6 26.623 48.084 C 25.386 48.103 25.211 47.188 25.566 46.65 C 21.747 46.27 18.261 44.761 15.446 42.462 C 15.335 43.107 14.553 43.661 13.679 42.759 C 12.849 44.073 10.878 48.256 8.799 46.274 C 6.942 44.296 11.347 42.078 12.36 41.464 C 11.601 40.758 12.039 39.824 12.711 39.722 C 10.365 36.839 8.847 33.256 8.518 29.334 C 8.022 29.833 6.916 29.756 6.937 28.397 C 5.421 28.739 1.069 30.304 1 27.432 C 1.085 24.72 5.769 26.267 6.919 26.549 C 6.878 25.405 8.066 25.097 8.556 25.717 C 8.958 21.89 10.494 18.402 12.823 15.594 C 12.111 15.617 11.354 14.771 12.341 13.813 C 11.027 12.983 6.844 11.013 8.826 8.933 C 10.803 7.076 13.022 11.481 13.636 12.494 C 14.408 11.664 15.453 12.267 15.383 13.041 C 18.366 10.583 22.111 9.018 26.21 8.751 C 25.24 8.709 24.893 6.908 26.623 6.935 C 26.281 5.419 24.716 1.067 27.588 0.998 C 30.3 1.084 28.753 5.767 28.471 6.917 C 29.857 6.868 30.016 8.623 28.783 8.753 L 28.783 8.754 C 33.019 9.044 36.874 10.719 39.897 13.332 L 39.897 13.333 Z  M 38.048 18.331 L 38.034 18.343 C 38.521 19.057 37.744 19.895 36.928 19.522 C 34.876 21.67 32.77 23.653 30.603 25.455 C 30.846 25.79 31.036 26.165 31.163 26.569 C 33.972 26.334 36.912 26.319 39.895 26.391 C 40.263 25.474 41.387 25.808 41.404 26.473 L 41.562 26.466 C 41.287 23.356 40.007 20.535 38.048 18.331 L 38.048 18.331 Z  M 41.603 28.365 L 41.422 28.355 C 41.262 29.204 40.12 29.247 39.806 28.406 C 36.9 28.473 34.067 28.391 31.316 28.145 C 31.256 28.703 31.078 29.226 30.806 29.688 C 32.945 31.499 35.02 33.554 37.065 35.701 C 37.973 35.312 38.532 36.344 38.074 36.826 L 38.204 36.944 C 40.203 34.618 41.458 31.636 41.603 28.365 L 41.603 28.365 Z  M 36.873 38.299 L 36.757 38.169 C 36.043 38.656 35.205 37.879 35.577 37.063 C 33.469 35.049 31.52 32.983 29.744 30.858 C 29.367 31.133 28.938 31.341 28.475 31.465 C 28.687 34.183 28.699 37.018 28.629 39.895 C 29.546 40.262 29.212 41.387 28.547 41.404 L 28.568 41.835 C 31.745 41.591 34.629 40.296 36.873 38.299 L 36.873 38.299 Z  M 26.642 41.853 L 26.666 41.422 C 25.816 41.261 25.774 40.12 26.614 39.806 C 26.549 36.981 26.625 34.227 26.855 31.549 C 26.254 31.454 25.699 31.22 25.224 30.882 C 23.489 32.945 21.589 34.953 19.539 36.912 C 19.911 37.728 19.074 38.505 18.36 38.018 L 18.088 38.321 C 20.393 40.363 23.368 41.665 26.642 41.853 Z  M 16.737 36.952 L 17.043 36.675 C 16.584 36.192 17.143 35.161 18.051 35.55 C 20.038 33.463 22.055 31.463 24.13 29.689 C 23.859 29.23 23.68 28.709 23.619 28.153 C 20.895 28.392 18.091 28.473 15.214 28.406 C 14.9 29.247 13.759 29.204 13.599 28.355 L 13.332 28.37 C 13.478 31.643 14.736 34.626 16.737 36.952 L 16.737 36.952 Z  M 13.374 26.462 L 13.617 26.473 C 13.634 25.808 14.759 25.474 15.126 26.391 C 18.08 26.319 20.991 26.333 23.775 26.562 C 23.901 26.161 24.091 25.788 24.332 25.455 C 22.229 23.694 20.183 21.762 18.189 19.673 C 17.372 20.046 16.595 19.208 17.083 18.494 L 16.893 18.325 C 14.932 20.529 13.65 23.351 13.374 26.462 L 13.374 26.462 Z  M 18.253 16.987 L 18.425 17.177 C 18.908 16.719 19.939 17.277 19.55 18.186 C 21.677 20.211 23.714 22.267 25.513 24.384 C 25.929 24.14 26.396 23.971 26.893 23.897 C 26.634 21.086 26.546 18.189 26.614 15.214 C 25.776 14.9 25.816 13.763 26.661 13.599 C 23.457 13.779 20.538 15.024 18.253 16.987 L 18.253 16.987 Z  M 26.395 8.74 L 26.395 8.739 L 26.383 8.74 L 26.395 8.739 L 26.395 8.74 Z " fill-rule="evenodd" fill="rgb(0,0,128)"/></g></g></svg>